<svg xmlns="http://www.w3.org/2000/svg" xmlns:xlink="http://www.w3.org/1999/xlink" width="1000" zoomAndPan="magnify" viewBox="0 0 750 749.999995" height="1000" preserveAspectRatio="xMidYMid meet" version="1.0"><defs><g/><clipPath id="139b9a54d4"><path d="M 9 234 L 679 234 L 679 423 L 9 423 Z M 9 234 " clip-rule="nonzero"/></clipPath><clipPath id="0b01341ce9"><path d="M 14.03125 402.644531 C 132.460938 355.621094 153.636719 352.367188 177.273438 348.820312 C 201.894531 344.976562 220.851562 343.203125 253.351562 341.132812 C 311.707031 337.285156 449.585938 337.878906 497.355469 332.554688 C 517.296875 330.1875 528.132812 327.230469 539.703125 324.570312 C 547.828125 322.5 552.261719 321.910156 560.632812 318.65625 C 573.925781 313.628906 599.535156 300.320312 610.367188 293.519531 C 615.785156 290.265625 617.261719 289.082031 622.1875 284.644531 C 632.527344 275.183594 657.148438 239.695312 666.503906 235.554688 C 669.953125 234.074219 672.414062 234.371094 674.382812 235.851562 C 676.355469 237.328125 678.570312 241.171875 678.816406 244.132812 C 679.0625 247.089844 677.585938 251.230469 675.613281 253.003906 C 673.644531 254.777344 669.707031 255.664062 667.488281 254.777344 C 665.273438 253.890625 662.566406 250.636719 661.828125 247.976562 C 661.089844 245.3125 662.074219 240.582031 663.550781 238.214844 C 665.027344 236.144531 668.722656 234.667969 670.9375 234.667969 C 672.90625 234.667969 674.875 235.554688 676.109375 237.328125 C 677.585938 239.398438 679.0625 243.835938 678.816406 246.496094 C 678.816406 248.863281 678.078125 249.75 676.355469 252.410156 C 670.691406 261.285156 646.5625 289.671875 629.574219 303.277344 C 613.566406 316.289062 592.394531 325.457031 577.867188 332.554688 C 567.527344 337.582031 562.355469 339.949219 550.78125 343.203125 C 530.839844 348.523438 502.769531 352.367188 468.546875 355.328125 C 412.65625 360.355469 307.027344 357.394531 246.457031 362.128906 C 204.355469 365.382812 168.40625 368.929688 139.355469 375.140625 C 118.917969 379.578125 106.359375 384.605469 88.140625 391.40625 C 66.71875 399.6875 30.035156 420.980469 19.445312 422.160156 C 16.246094 422.457031 15.015625 422.160156 13.292969 420.980469 C 11.566406 419.796875 10.089844 417.132812 9.597656 415.0625 C 9.105469 412.699219 9.105469 409.742188 9.84375 407.671875 C 10.582031 405.601562 14.03125 402.644531 14.03125 402.644531 " clip-rule="nonzero"/></clipPath></defs><g fill="#eaeaea" fill-opacity="1"><g transform="translate(57.475843, 410.950723)"><g><path d="M 164.59375 -70.484375 C 164.59375 -62.742188 163.023438 -54.710938 159.890625 -46.390625 C 156.753906 -38.078125 152.007812 -30.488281 145.65625 -23.625 C 139.3125 -16.769531 131.394531 -11.117188 121.90625 -6.671875 C 112.425781 -2.222656 101.265625 0 88.421875 0 L 19.703125 0 L 19.703125 -140.078125 L 83.171875 -140.078125 C 94.847656 -140.078125 105.644531 -138.4375 115.5625 -135.15625 C 125.488281 -131.875 134.0625 -127.164062 141.28125 -121.03125 C 148.507812 -114.90625 154.203125 -107.570312 158.359375 -99.03125 C 162.515625 -90.5 164.59375 -80.984375 164.59375 -70.484375 Z M 135.265625 -73.546875 C 135.265625 -114.253906 116.148438 -134.609375 77.921875 -134.609375 L 45.09375 -134.609375 L 45.09375 -5.46875 L 70.921875 -5.46875 C 82.878906 -5.46875 92.976562 -7.035156 101.21875 -10.171875 C 109.46875 -13.316406 116.109375 -17.84375 121.140625 -23.75 C 126.179688 -29.65625 129.796875 -36.800781 131.984375 -45.1875 C 134.171875 -53.582031 135.265625 -63.035156 135.265625 -73.546875 Z M 135.265625 -73.546875 "/></g></g></g><g fill="#eaeaea" fill-opacity="1"><g transform="translate(231.698022, 410.950723)"><g><path d="M 150.140625 -55.59375 C 150.140625 -34.4375 145.101562 -19.148438 135.03125 -9.734375 C 124.96875 -0.328125 109.359375 4.375 88.203125 4.375 C 79.890625 4.375 71.679688 3.789062 63.578125 2.625 C 55.484375 1.457031 48.257812 -0.835938 41.90625 -4.265625 C 35.5625 -7.691406 30.421875 -12.46875 26.484375 -18.59375 C 22.546875 -24.726562 20.578125 -32.757812 20.578125 -42.6875 L 20.578125 -140.078125 L 45.96875 -140.078125 L 45.96875 -42.90625 C 45.96875 -36.039062 47.132812 -30.019531 49.46875 -24.84375 C 51.800781 -19.664062 55.046875 -15.320312 59.203125 -11.8125 C 63.359375 -8.3125 68.28125 -5.648438 73.96875 -3.828125 C 79.664062 -2.003906 85.867188 -1.09375 92.578125 -1.09375 C 110.816406 -1.09375 124.054688 -5.429688 132.296875 -14.109375 C 140.546875 -22.796875 144.671875 -36.550781 144.671875 -55.375 L 144.671875 -140.078125 L 150.140625 -140.078125 Z M 150.140625 -55.59375 "/></g></g></g><g fill="#eaeaea" fill-opacity="1"><g transform="translate(401.980527, 410.950723)"><g><path d="M 132.640625 0 L 99.375 -63.90625 L 45.53125 -63.90625 L 13.34375 0 L 6.34375 0 L 77.921875 -139.421875 C 79.671875 -142.773438 81.421875 -144.453125 83.171875 -144.453125 C 84.484375 -144.453125 85.757812 -143.648438 87 -142.046875 C 88.238281 -140.441406 89.441406 -138.472656 90.609375 -136.140625 L 163.5 0 Z M 75.296875 -109.875 C 73.835938 -112.5 72.671875 -113.8125 71.796875 -113.8125 C 71.066406 -113.8125 70.519531 -113.484375 70.15625 -112.828125 C 69.789062 -112.171875 69.460938 -111.476562 69.171875 -110.75 L 48.375 -69.390625 L 96.53125 -69.390625 Z M 75.296875 -109.875 "/></g></g></g><g fill="#eaeaea" fill-opacity="1"><g transform="translate(572.263016, 410.950723)"><g><path d="M 30.859375 0 C 28.960938 0 27.359375 -0.507812 26.046875 -1.53125 C 24.734375 -2.550781 23.675781 -3.863281 22.875 -5.46875 C 22.070312 -7.070312 21.488281 -8.859375 21.125 -10.828125 C 20.757812 -12.804688 20.578125 -14.671875 20.578125 -16.421875 L 20.578125 -140.078125 L 45.96875 -140.078125 L 45.96875 -18.171875 C 45.96875 -15.253906 46.660156 -12.40625 48.046875 -9.625 C 49.429688 -6.851562 51.582031 -5.46875 54.5 -5.46875 L 138.109375 -5.46875 L 138.109375 0 Z M 30.859375 0 "/></g></g></g><g clip-path="url(#139b9a54d4)"><g clip-path="url(#0b01341ce9)"><path fill="#354259" d="M -0.25 222.839844 L 688.664062 222.839844 L 688.664062 433.992188 L -0.25 433.992188 Z M -0.25 222.839844 " fill-opacity="1" fill-rule="nonzero"/></g></g><g fill="#eaeaea" fill-opacity="1"><g transform="translate(15.95362, 512.163587)"><g><path d="M 27.671875 -9.0625 C 27.671875 -7.15625 27.226562 -5.566406 26.34375 -4.296875 C 25.46875 -3.023438 24.332031 -2.003906 22.9375 -1.234375 C 21.550781 -0.472656 20.019531 0.0664062 18.34375 0.390625 C 16.664062 0.710938 15.046875 0.875 13.484375 0.875 C 12.421875 0.875 11.332031 0.804688 10.21875 0.671875 C 9.101562 0.546875 8.039062 0.382812 7.03125 0.1875 C 6.019531 0 5.085938 -0.222656 4.234375 -0.484375 C 3.378906 -0.742188 2.644531 -1.003906 2.03125 -1.265625 L 2.25 -2.46875 C 2.882812 -2.207031 3.664062 -1.941406 4.59375 -1.671875 C 5.519531 -1.398438 6.484375 -1.15625 7.484375 -0.9375 C 8.484375 -0.71875 9.476562 -0.539062 10.46875 -0.40625 C 11.46875 -0.28125 12.375 -0.21875 13.1875 -0.21875 C 14.226562 -0.21875 15.316406 -0.300781 16.453125 -0.46875 C 17.597656 -0.644531 18.640625 -0.960938 19.578125 -1.421875 C 20.523438 -1.890625 21.300781 -2.539062 21.90625 -3.375 C 22.507812 -4.21875 22.8125 -5.289062 22.8125 -6.59375 C 22.8125 -7.8125 22.539062 -8.75 22 -9.40625 C 21.46875 -10.070312 20.789062 -10.570312 19.96875 -10.90625 C 19.144531 -11.238281 18.238281 -11.46875 17.25 -11.59375 C 16.269531 -11.726562 15.332031 -11.851562 14.4375 -11.96875 C 13.28125 -12.144531 11.992188 -12.363281 10.578125 -12.625 C 9.160156 -12.882812 7.835938 -13.285156 6.609375 -13.828125 C 5.378906 -14.378906 4.34375 -15.125 3.5 -16.0625 C 2.664062 -17.007812 2.25 -18.25 2.25 -19.78125 C 2.25 -21.570312 2.644531 -23.035156 3.4375 -24.171875 C 4.238281 -25.316406 5.257812 -26.210938 6.5 -26.859375 C 7.75 -27.515625 9.140625 -27.972656 10.671875 -28.234375 C 12.203125 -28.492188 13.707031 -28.625 15.1875 -28.625 C 16.976562 -28.625 18.722656 -28.507812 20.421875 -28.28125 C 22.128906 -28.050781 23.820312 -27.644531 25.5 -27.0625 L 25.109375 -25.890625 C 23.804688 -26.410156 22.285156 -26.816406 20.546875 -27.109375 C 18.816406 -27.398438 17.039062 -27.546875 15.21875 -27.546875 C 14.351562 -27.546875 13.441406 -27.476562 12.484375 -27.34375 C 11.535156 -27.21875 10.660156 -26.972656 9.859375 -26.609375 C 9.066406 -26.242188 8.410156 -25.722656 7.890625 -25.046875 C 7.367188 -24.367188 7.109375 -23.476562 7.109375 -22.375 C 7.109375 -21.070312 7.40625 -20.066406 8 -19.359375 C 8.59375 -18.648438 9.410156 -18.113281 10.453125 -17.75 C 11.492188 -17.394531 12.722656 -17.140625 14.140625 -16.984375 C 15.554688 -16.828125 17.085938 -16.628906 18.734375 -16.390625 C 20.671875 -16.128906 22.222656 -15.734375 23.390625 -15.203125 C 24.566406 -14.671875 25.472656 -14.0625 26.109375 -13.375 C 26.742188 -12.695312 27.160156 -11.984375 27.359375 -11.234375 C 27.566406 -10.484375 27.671875 -9.757812 27.671875 -9.0625 Z M 27.671875 -9.0625 "/></g></g></g><g fill="#eaeaea" fill-opacity="1"><g transform="translate(45.660161, 512.163587)"><g><path d="M 31.3125 -3.078125 C 29.488281 -1.609375 27.4375 -0.582031 25.15625 0 C 22.875 0.582031 20.5625 0.875 18.21875 0.875 C 16.101562 0.875 14.054688 0.570312 12.078125 -0.03125 C 10.097656 -0.644531 8.347656 -1.554688 6.828125 -2.765625 C 5.304688 -3.984375 4.09375 -5.519531 3.1875 -7.375 C 2.28125 -9.226562 1.828125 -11.394531 1.828125 -13.875 C 1.828125 -16.101562 2.28125 -18.128906 3.1875 -19.953125 C 4.09375 -21.773438 5.304688 -23.328125 6.828125 -24.609375 C 8.347656 -25.898438 10.097656 -26.890625 12.078125 -27.578125 C 14.054688 -28.273438 16.101562 -28.625 18.21875 -28.625 C 19.226562 -28.625 20.273438 -28.554688 21.359375 -28.421875 C 22.441406 -28.296875 23.523438 -28.09375 24.609375 -27.8125 C 25.691406 -27.539062 26.75 -27.203125 27.78125 -26.796875 C 28.8125 -26.398438 29.773438 -25.910156 30.671875 -25.328125 L 30.28125 -24.078125 C 28.625 -25.171875 26.71875 -26.019531 24.5625 -26.625 C 22.414062 -27.238281 20.300781 -27.546875 18.21875 -27.546875 C 16.25 -27.546875 14.582031 -27.132812 13.21875 -26.3125 C 11.863281 -25.488281 10.773438 -24.425781 9.953125 -23.125 C 9.128906 -21.820312 8.535156 -20.359375 8.171875 -18.734375 C 7.816406 -17.117188 7.640625 -15.5 7.640625 -13.875 C 7.640625 -12.257812 7.847656 -10.640625 8.265625 -9.015625 C 8.679688 -7.398438 9.363281 -5.941406 10.3125 -4.640625 C 11.269531 -3.335938 12.535156 -2.273438 14.109375 -1.453125 C 15.691406 -0.628906 17.640625 -0.21875 19.953125 -0.21875 C 20.648438 -0.21875 21.46875 -0.300781 22.40625 -0.46875 C 23.34375 -0.644531 24.316406 -0.898438 25.328125 -1.234375 C 26.335938 -1.566406 27.332031 -1.984375 28.3125 -2.484375 C 29.300781 -2.992188 30.1875 -3.566406 30.96875 -4.203125 Z M 31.3125 -3.078125 "/></g></g></g><g fill="#eaeaea" fill-opacity="1"><g transform="translate(78.575877, 512.163587)"><g><path d="M 25.5 0 L 25.5 -14.09375 L 10.71875 -14.09375 L 11.234375 -15.1875 L 25.5 -15.1875 L 25.5 -27.765625 L 30.53125 -27.765625 L 30.53125 0 Z M 3.953125 0 L 3.953125 -27.765625 L 8.984375 -27.765625 L 8.984375 0 Z M 3.953125 0 "/></g></g></g><g fill="#eaeaea" fill-opacity="1"><g transform="translate(113.096174, 512.163587)"><g><path d="M 6.109375 0 C 5.734375 0 5.414062 -0.0976562 5.15625 -0.296875 C 4.894531 -0.503906 4.6875 -0.765625 4.53125 -1.078125 C 4.375 -1.398438 4.257812 -1.753906 4.1875 -2.140625 C 4.113281 -2.535156 4.078125 -2.90625 4.078125 -3.25 L 4.078125 -27.765625 L 9.109375 -27.765625 L 9.109375 -3.59375 C 9.109375 -3.019531 9.242188 -2.457031 9.515625 -1.90625 C 9.796875 -1.351562 10.222656 -1.078125 10.796875 -1.078125 L 27.375 -1.078125 L 27.375 0 Z M 6.109375 0 "/></g></g></g><g fill="#eaeaea" fill-opacity="1"><g transform="translate(141.328234, 512.163587)"><g><path d="M 29.75 -11.015625 C 29.75 -6.828125 28.75 -3.796875 26.75 -1.921875 C 24.757812 -0.0546875 21.671875 0.875 17.484375 0.875 C 15.828125 0.875 14.195312 0.753906 12.59375 0.515625 C 10.988281 0.285156 9.554688 -0.164062 8.296875 -0.84375 C 7.046875 -1.519531 6.03125 -2.46875 5.25 -3.6875 C 4.46875 -4.90625 4.078125 -6.492188 4.078125 -8.453125 L 4.078125 -27.765625 L 9.109375 -27.765625 L 9.109375 -8.5 C 9.109375 -7.144531 9.335938 -5.953125 9.796875 -4.921875 C 10.265625 -3.898438 10.910156 -3.039062 11.734375 -2.34375 C 12.554688 -1.644531 13.53125 -1.113281 14.65625 -0.75 C 15.789062 -0.394531 17.019531 -0.21875 18.34375 -0.21875 C 21.957031 -0.21875 24.582031 -1.078125 26.21875 -2.796875 C 27.851562 -4.515625 28.671875 -7.238281 28.671875 -10.96875 L 28.671875 -27.765625 L 29.75 -27.765625 Z M 25.671875 -33.1875 C 25.671875 -32.488281 25.410156 -31.878906 24.890625 -31.359375 C 24.367188 -30.835938 23.765625 -30.578125 23.078125 -30.578125 C 22.378906 -30.578125 21.769531 -30.835938 21.25 -31.359375 C 20.726562 -31.878906 20.46875 -32.488281 20.46875 -33.1875 C 20.46875 -33.875 20.726562 -34.476562 21.25 -35 C 21.769531 -35.519531 22.378906 -35.78125 23.078125 -35.78125 C 23.765625 -35.78125 24.367188 -35.519531 24.890625 -35 C 25.410156 -34.476562 25.671875 -33.875 25.671875 -33.1875 Z M 16.75 -33.1875 C 16.75 -32.488281 16.488281 -31.878906 15.96875 -31.359375 C 15.445312 -30.835938 14.835938 -30.578125 14.140625 -30.578125 C 13.441406 -30.578125 12.832031 -30.835938 12.3125 -31.359375 C 11.789062 -31.878906 11.53125 -32.488281 11.53125 -33.1875 C 11.53125 -33.875 11.789062 -34.476562 12.3125 -35 C 12.832031 -35.519531 13.441406 -35.78125 14.140625 -35.78125 C 14.835938 -35.78125 15.445312 -35.519531 15.96875 -35 C 16.488281 -34.476562 16.75 -33.875 16.75 -33.1875 Z M 16.75 -33.1875 "/></g></g></g><g fill="#eaeaea" fill-opacity="1"><g transform="translate(175.067926, 512.163587)"><g><path d="M 27.671875 -9.0625 C 27.671875 -7.15625 27.226562 -5.566406 26.34375 -4.296875 C 25.46875 -3.023438 24.332031 -2.003906 22.9375 -1.234375 C 21.550781 -0.472656 20.019531 0.0664062 18.34375 0.390625 C 16.664062 0.710938 15.046875 0.875 13.484375 0.875 C 12.421875 0.875 11.332031 0.804688 10.21875 0.671875 C 9.101562 0.546875 8.039062 0.382812 7.03125 0.1875 C 6.019531 0 5.085938 -0.222656 4.234375 -0.484375 C 3.378906 -0.742188 2.644531 -1.003906 2.03125 -1.265625 L 2.25 -2.46875 C 2.882812 -2.207031 3.664062 -1.941406 4.59375 -1.671875 C 5.519531 -1.398438 6.484375 -1.15625 7.484375 -0.9375 C 8.484375 -0.71875 9.476562 -0.539062 10.46875 -0.40625 C 11.46875 -0.28125 12.375 -0.21875 13.1875 -0.21875 C 14.226562 -0.21875 15.316406 -0.300781 16.453125 -0.46875 C 17.597656 -0.644531 18.640625 -0.960938 19.578125 -1.421875 C 20.523438 -1.890625 21.300781 -2.539062 21.90625 -3.375 C 22.507812 -4.21875 22.8125 -5.289062 22.8125 -6.59375 C 22.8125 -7.8125 22.539062 -8.75 22 -9.40625 C 21.46875 -10.070312 20.789062 -10.570312 19.96875 -10.90625 C 19.144531 -11.238281 18.238281 -11.46875 17.25 -11.59375 C 16.269531 -11.726562 15.332031 -11.851562 14.4375 -11.96875 C 13.28125 -12.144531 11.992188 -12.363281 10.578125 -12.625 C 9.160156 -12.882812 7.835938 -13.285156 6.609375 -13.828125 C 5.378906 -14.378906 4.34375 -15.125 3.5 -16.0625 C 2.664062 -17.007812 2.25 -18.25 2.25 -19.78125 C 2.25 -21.570312 2.644531 -23.035156 3.4375 -24.171875 C 4.238281 -25.316406 5.257812 -26.210938 6.5 -26.859375 C 7.75 -27.515625 9.140625 -27.972656 10.671875 -28.234375 C 12.203125 -28.492188 13.707031 -28.625 15.1875 -28.625 C 16.976562 -28.625 18.722656 -28.507812 20.421875 -28.28125 C 22.128906 -28.050781 23.820312 -27.644531 25.5 -27.0625 L 25.109375 -25.890625 C 23.804688 -26.410156 22.285156 -26.816406 20.546875 -27.109375 C 18.816406 -27.398438 17.039062 -27.546875 15.21875 -27.546875 C 14.351562 -27.546875 13.441406 -27.476562 12.484375 -27.34375 C 11.535156 -27.21875 10.660156 -26.972656 9.859375 -26.609375 C 9.066406 -26.242188 8.410156 -25.722656 7.890625 -25.046875 C 7.367188 -24.367188 7.109375 -23.476562 7.109375 -22.375 C 7.109375 -21.070312 7.40625 -20.066406 8 -19.359375 C 8.59375 -18.648438 9.410156 -18.113281 10.453125 -17.75 C 11.492188 -17.394531 12.722656 -17.140625 14.140625 -16.984375 C 15.554688 -16.828125 17.085938 -16.628906 18.734375 -16.390625 C 20.671875 -16.128906 22.222656 -15.734375 23.390625 -15.203125 C 24.566406 -14.671875 25.472656 -14.0625 26.109375 -13.375 C 26.742188 -12.695312 27.160156 -11.984375 27.359375 -11.234375 C 27.566406 -10.484375 27.671875 -9.757812 27.671875 -9.0625 Z M 27.671875 -9.0625 "/></g></g></g><g fill="#eaeaea" fill-opacity="1"><g transform="translate(204.774466, 512.163587)"><g><path d="M 27.671875 -9.0625 C 27.671875 -7.15625 27.226562 -5.566406 26.34375 -4.296875 C 25.46875 -3.023438 24.332031 -2.003906 22.9375 -1.234375 C 21.550781 -0.472656 20.019531 0.0664062 18.34375 0.390625 C 16.664062 0.710938 15.046875 0.875 13.484375 0.875 C 12.421875 0.875 11.332031 0.804688 10.21875 0.671875 C 9.101562 0.546875 8.039062 0.382812 7.03125 0.1875 C 6.019531 0 5.085938 -0.222656 4.234375 -0.484375 C 3.378906 -0.742188 2.644531 -1.003906 2.03125 -1.265625 L 2.25 -2.46875 C 2.882812 -2.207031 3.664062 -1.941406 4.59375 -1.671875 C 5.519531 -1.398438 6.484375 -1.15625 7.484375 -0.9375 C 8.484375 -0.71875 9.476562 -0.539062 10.46875 -0.40625 C 11.46875 -0.28125 12.375 -0.21875 13.1875 -0.21875 C 14.226562 -0.21875 15.316406 -0.300781 16.453125 -0.46875 C 17.597656 -0.644531 18.640625 -0.960938 19.578125 -1.421875 C 20.523438 -1.890625 21.300781 -2.539062 21.90625 -3.375 C 22.507812 -4.21875 22.8125 -5.289062 22.8125 -6.59375 C 22.8125 -7.8125 22.539062 -8.75 22 -9.40625 C 21.46875 -10.070312 20.789062 -10.570312 19.96875 -10.90625 C 19.144531 -11.238281 18.238281 -11.46875 17.25 -11.59375 C 16.269531 -11.726562 15.332031 -11.851562 14.4375 -11.96875 C 13.28125 -12.144531 11.992188 -12.363281 10.578125 -12.625 C 9.160156 -12.882812 7.835938 -13.285156 6.609375 -13.828125 C 5.378906 -14.378906 4.34375 -15.125 3.5 -16.0625 C 2.664062 -17.007812 2.25 -18.25 2.25 -19.78125 C 2.25 -21.570312 2.644531 -23.035156 3.4375 -24.171875 C 4.238281 -25.316406 5.257812 -26.210938 6.5 -26.859375 C 7.75 -27.515625 9.140625 -27.972656 10.671875 -28.234375 C 12.203125 -28.492188 13.707031 -28.625 15.1875 -28.625 C 16.976562 -28.625 18.722656 -28.507812 20.421875 -28.28125 C 22.128906 -28.050781 23.820312 -27.644531 25.5 -27.0625 L 25.109375 -25.890625 C 23.804688 -26.410156 22.285156 -26.816406 20.546875 -27.109375 C 18.816406 -27.398438 17.039062 -27.546875 15.21875 -27.546875 C 14.351562 -27.546875 13.441406 -27.476562 12.484375 -27.34375 C 11.535156 -27.21875 10.660156 -26.972656 9.859375 -26.609375 C 9.066406 -26.242188 8.410156 -25.722656 7.890625 -25.046875 C 7.367188 -24.367188 7.109375 -23.476562 7.109375 -22.375 C 7.109375 -21.070312 7.40625 -20.066406 8 -19.359375 C 8.59375 -18.648438 9.410156 -18.113281 10.453125 -17.75 C 11.492188 -17.394531 12.722656 -17.140625 14.140625 -16.984375 C 15.554688 -16.828125 17.085938 -16.628906 18.734375 -16.390625 C 20.671875 -16.128906 22.222656 -15.734375 23.390625 -15.203125 C 24.566406 -14.671875 25.472656 -14.0625 26.109375 -13.375 C 26.742188 -12.695312 27.160156 -11.984375 27.359375 -11.234375 C 27.566406 -10.484375 27.671875 -9.757812 27.671875 -9.0625 Z M 27.671875 -9.0625 "/></g></g></g><g fill="#eaeaea" fill-opacity="1"><g transform="translate(234.481007, 512.163587)"><g><path d="M 5.71875 0 C 5.34375 0 5.023438 -0.0976562 4.765625 -0.296875 C 4.503906 -0.503906 4.296875 -0.765625 4.140625 -1.078125 C 3.984375 -1.398438 3.867188 -1.753906 3.796875 -2.140625 C 3.722656 -2.535156 3.6875 -2.90625 3.6875 -3.25 L 3.6875 -24.5 C 3.6875 -24.851562 3.722656 -25.222656 3.796875 -25.609375 C 3.867188 -26.003906 3.984375 -26.359375 4.140625 -26.671875 C 4.296875 -26.992188 4.503906 -27.253906 4.765625 -27.453125 C 5.023438 -27.660156 5.34375 -27.765625 5.71875 -27.765625 L 27.765625 -27.765625 L 27.765625 -26.671875 L 10.40625 -26.671875 C 9.832031 -26.671875 9.40625 -26.394531 9.125 -25.84375 C 8.851562 -25.300781 8.71875 -24.738281 8.71875 -24.15625 L 8.71875 -15.1875 L 23.859375 -15.1875 L 23.859375 -14.09375 L 8.71875 -14.09375 L 8.71875 -3.59375 C 8.71875 -3.019531 8.851562 -2.457031 9.125 -1.90625 C 9.40625 -1.351562 9.832031 -1.078125 10.40625 -1.078125 L 28.28125 -1.078125 L 28.28125 0 Z M 5.71875 0 "/></g></g></g><g fill="#eaeaea" fill-opacity="1"><g transform="translate(264.057434, 512.163587)"><g><path d="M 6.109375 0 C 5.734375 0 5.414062 -0.0976562 5.15625 -0.296875 C 4.894531 -0.503906 4.6875 -0.765625 4.53125 -1.078125 C 4.375 -1.398438 4.257812 -1.753906 4.1875 -2.140625 C 4.113281 -2.535156 4.078125 -2.90625 4.078125 -3.25 L 4.078125 -27.765625 L 9.109375 -27.765625 L 9.109375 -3.59375 C 9.109375 -3.019531 9.242188 -2.457031 9.515625 -1.90625 C 9.796875 -1.351562 10.222656 -1.078125 10.796875 -1.078125 L 27.375 -1.078125 L 27.375 0 Z M 6.109375 0 "/></g></g></g><g fill="#eaeaea" fill-opacity="1"><g transform="translate(292.289481, 512.163587)"><g/></g></g><g fill="#eaeaea" fill-opacity="1"><g transform="translate(306.340473, 512.163587)"><g><path d="M 24.15625 0 L 21.296875 -2.03125 C 19.679688 -1.019531 18.128906 -0.285156 16.640625 0.171875 C 15.148438 0.640625 13.421875 0.875 11.453125 0.875 C 10.378906 0.875 9.304688 0.742188 8.234375 0.484375 C 7.171875 0.222656 6.203125 -0.164062 5.328125 -0.6875 C 4.460938 -1.207031 3.757812 -1.878906 3.21875 -2.703125 C 2.6875 -3.535156 2.421875 -4.515625 2.421875 -5.640625 C 2.421875 -7.234375 2.78125 -8.535156 3.5 -9.546875 C 4.226562 -10.554688 5.023438 -11.359375 5.890625 -11.953125 C 6.765625 -12.546875 7.578125 -12.972656 8.328125 -13.234375 C 9.078125 -13.492188 9.484375 -13.679688 9.546875 -13.796875 C 9.078125 -14.253906 8.671875 -14.785156 8.328125 -15.390625 C 7.984375 -15.972656 7.6875 -16.640625 7.4375 -17.390625 C 7.1875 -18.140625 7.0625 -19.023438 7.0625 -20.046875 C 7.0625 -20.960938 7.242188 -21.816406 7.609375 -22.609375 C 7.972656 -23.410156 8.472656 -24.113281 9.109375 -24.71875 C 9.742188 -25.332031 10.5 -25.8125 11.375 -26.15625 C 12.257812 -26.5 13.238281 -26.671875 14.3125 -26.671875 C 15.207031 -26.671875 16.046875 -26.5625 16.828125 -26.34375 C 17.609375 -26.132812 18.28125 -25.8125 18.84375 -25.375 C 19.40625 -24.9375 19.851562 -24.40625 20.1875 -23.78125 C 20.519531 -23.164062 20.6875 -22.46875 20.6875 -21.6875 C 20.6875 -20.789062 20.476562 -19.953125 20.0625 -19.171875 C 19.644531 -18.390625 19.101562 -17.703125 18.4375 -17.109375 C 17.769531 -16.515625 17.023438 -16.007812 16.203125 -15.59375 C 15.378906 -15.175781 14.5625 -14.863281 13.75 -14.65625 C 14.15625 -14.164062 14.785156 -13.476562 15.640625 -12.59375 C 16.492188 -11.71875 17.394531 -10.816406 18.34375 -9.890625 C 19.300781 -8.960938 20.234375 -8.097656 21.140625 -7.296875 C 22.054688 -6.503906 22.773438 -5.953125 23.296875 -5.640625 C 24.597656 -7.140625 25.441406 -8.597656 25.828125 -10.015625 C 26.222656 -11.429688 26.421875 -12.707031 26.421875 -13.84375 L 27.5 -13.84375 C 27.5 -12.300781 27.265625 -10.828125 26.796875 -9.421875 C 26.335938 -8.023438 25.472656 -6.546875 24.203125 -4.984375 C 24.460938 -4.753906 24.722656 -4.523438 24.984375 -4.296875 C 25.210938 -4.085938 25.445312 -3.875 25.6875 -3.65625 C 25.9375 -3.445312 26.179688 -3.253906 26.421875 -3.078125 C 26.816406 -2.765625 27.269531 -2.425781 27.78125 -2.0625 C 28.289062 -1.695312 28.757812 -1.359375 29.1875 -1.046875 C 29.738281 -0.691406 30.273438 -0.34375 30.796875 0 Z M 16.875 -20.78125 C 16.875 -21.382812 16.804688 -21.96875 16.671875 -22.53125 C 16.546875 -23.09375 16.332031 -23.601562 16.03125 -24.0625 C 15.726562 -24.53125 15.328125 -24.898438 14.828125 -25.171875 C 14.335938 -25.453125 13.734375 -25.59375 13.015625 -25.59375 C 11.972656 -25.59375 11.171875 -25.285156 10.609375 -24.671875 C 10.046875 -24.066406 9.765625 -23.257812 9.765625 -22.25 C 9.765625 -20.800781 10.085938 -19.539062 10.734375 -18.46875 C 11.390625 -17.40625 12.207031 -16.378906 13.1875 -15.390625 C 14.3125 -16.054688 15.207031 -16.796875 15.875 -17.609375 C 16.539062 -18.421875 16.875 -19.476562 16.875 -20.78125 Z M 20.46875 -2.78125 C 19.925781 -3.125 19.160156 -3.742188 18.171875 -4.640625 C 17.191406 -5.535156 16.171875 -6.507812 15.109375 -7.5625 C 14.054688 -8.625 13.066406 -9.660156 12.140625 -10.671875 C 11.210938 -11.679688 10.503906 -12.460938 10.015625 -13.015625 C 9.179688 -12.378906 8.515625 -11.75 8.015625 -11.125 C 7.523438 -10.5 7.28125 -9.625 7.28125 -8.5 C 7.28125 -7.144531 7.472656 -5.984375 7.859375 -5.015625 C 8.253906 -4.046875 8.800781 -3.253906 9.5 -2.640625 C 10.195312 -2.035156 11.015625 -1.585938 11.953125 -1.296875 C 12.890625 -1.015625 13.90625 -0.875 15 -0.875 C 16.039062 -0.875 17.023438 -1.066406 17.953125 -1.453125 C 18.878906 -1.835938 19.71875 -2.28125 20.46875 -2.78125 Z M 20.46875 -2.78125 "/></g></g></g><g fill="#eaeaea" fill-opacity="1"><g transform="translate(337.651595, 512.163587)"><g/></g></g><g fill="#eaeaea" fill-opacity="1"><g transform="translate(351.702562, 512.163587)"><g><path d="M 25.5 0 L 25.5 -14.09375 L 10.71875 -14.09375 L 11.234375 -15.1875 L 25.5 -15.1875 L 25.5 -27.765625 L 30.53125 -27.765625 L 30.53125 0 Z M 3.953125 0 L 3.953125 -27.765625 L 8.984375 -27.765625 L 8.984375 0 Z M 3.953125 0 "/></g></g></g><g fill="#eaeaea" fill-opacity="1"><g transform="translate(386.222872, 512.163587)"><g><path d="M 26.28125 0 L 19.6875 -12.671875 L 9.015625 -12.671875 L 2.640625 0 L 1.265625 0 L 15.4375 -27.625 C 15.789062 -28.289062 16.140625 -28.625 16.484375 -28.625 C 16.742188 -28.625 16.992188 -28.460938 17.234375 -28.140625 C 17.484375 -27.828125 17.722656 -27.441406 17.953125 -26.984375 L 32.40625 0 Z M 14.921875 -21.78125 C 14.628906 -22.300781 14.398438 -22.5625 14.234375 -22.5625 C 14.085938 -22.5625 13.976562 -22.492188 13.90625 -22.359375 C 13.832031 -22.234375 13.765625 -22.097656 13.703125 -21.953125 L 9.578125 -13.75 L 19.125 -13.75 Z M 14.921875 -21.78125 "/></g></g></g><g fill="#eaeaea" fill-opacity="1"><g transform="translate(419.962551, 512.163587)"><g><path d="M 29.1875 -0.78125 C 29.1875 -0.289062 29.097656 0.0507812 28.921875 0.25 C 28.753906 0.457031 28.539062 0.5625 28.28125 0.5625 C 27.875 0.5625 27.425781 0.410156 26.9375 0.109375 C 26.445312 -0.191406 26.070312 -0.488281 25.8125 -0.78125 L 5.640625 -21.515625 C 5.523438 -21.628906 5.421875 -21.6875 5.328125 -21.6875 C 5.191406 -21.6875 5.125 -21.570312 5.125 -21.34375 L 5.125 0 L 4.03125 0 L 4.03125 -27.234375 C 4.03125 -27.734375 4.144531 -28.085938 4.375 -28.296875 C 4.613281 -28.515625 4.90625 -28.625 5.25 -28.625 C 5.914062 -28.625 6.550781 -28.320312 7.15625 -27.71875 L 27.375 -7.03125 C 27.570312 -6.820312 27.726562 -6.71875 27.84375 -6.71875 C 27.9375 -6.71875 28.003906 -6.769531 28.046875 -6.875 C 28.085938 -6.976562 28.109375 -7.070312 28.109375 -7.15625 L 28.109375 -27.765625 L 29.1875 -27.765625 Z M 29.1875 -0.78125 "/></g></g></g><g fill="#eaeaea" fill-opacity="1"><g transform="translate(452.878279, 512.163587)"><g><path d="M 32.625 -13.96875 C 32.625 -12.4375 32.3125 -10.84375 31.6875 -9.1875 C 31.0625 -7.539062 30.117188 -6.035156 28.859375 -4.671875 C 27.609375 -3.316406 26.039062 -2.195312 24.15625 -1.3125 C 22.28125 -0.4375 20.070312 0 17.53125 0 L 3.90625 0 L 3.90625 -27.765625 L 16.484375 -27.765625 C 18.796875 -27.765625 20.929688 -27.4375 22.890625 -26.78125 C 24.859375 -26.132812 26.554688 -25.203125 27.984375 -23.984375 C 29.421875 -22.773438 30.550781 -21.320312 31.375 -19.625 C 32.207031 -17.9375 32.625 -16.050781 32.625 -13.96875 Z M 26.8125 -14.578125 C 26.8125 -22.640625 23.019531 -26.671875 15.4375 -26.671875 L 8.9375 -26.671875 L 8.9375 -1.078125 L 14.046875 -1.078125 C 16.421875 -1.078125 18.425781 -1.390625 20.0625 -2.015625 C 21.695312 -2.640625 23.007812 -3.535156 24 -4.703125 C 25 -5.878906 25.71875 -7.296875 26.15625 -8.953125 C 26.59375 -10.617188 26.8125 -12.492188 26.8125 -14.578125 Z M 26.8125 -14.578125 "/></g></g></g><g fill="#eaeaea" fill-opacity="1"><g transform="translate(487.398588, 512.163587)"><g><path d="M 18.296875 -12.40625 L 18.296875 0 L 13.265625 0 L 13.265625 -11.71875 L 1.078125 -27.765625 L 6.8125 -27.765625 L 17.53125 -13.53125 L 28.109375 -27.765625 L 29.84375 -27.765625 Z M 18.296875 -12.40625 "/></g></g></g><g fill="#eaeaea" fill-opacity="1"><g transform="translate(518.709686, 512.163587)"><g/></g></g><g fill="#eaeaea" fill-opacity="1"><g transform="translate(532.760678, 512.163587)"><g><path d="M 27.671875 -9.0625 C 27.671875 -7.15625 27.226562 -5.566406 26.34375 -4.296875 C 25.46875 -3.023438 24.332031 -2.003906 22.9375 -1.234375 C 21.550781 -0.472656 20.019531 0.0664062 18.34375 0.390625 C 16.664062 0.710938 15.046875 0.875 13.484375 0.875 C 12.421875 0.875 11.332031 0.804688 10.21875 0.671875 C 9.101562 0.546875 8.039062 0.382812 7.03125 0.1875 C 6.019531 0 5.085938 -0.222656 4.234375 -0.484375 C 3.378906 -0.742188 2.644531 -1.003906 2.03125 -1.265625 L 2.25 -2.46875 C 2.882812 -2.207031 3.664062 -1.941406 4.59375 -1.671875 C 5.519531 -1.398438 6.484375 -1.15625 7.484375 -0.9375 C 8.484375 -0.71875 9.476562 -0.539062 10.46875 -0.40625 C 11.46875 -0.28125 12.375 -0.21875 13.1875 -0.21875 C 14.226562 -0.21875 15.316406 -0.300781 16.453125 -0.46875 C 17.597656 -0.644531 18.640625 -0.960938 19.578125 -1.421875 C 20.523438 -1.890625 21.300781 -2.539062 21.90625 -3.375 C 22.507812 -4.21875 22.8125 -5.289062 22.8125 -6.59375 C 22.8125 -7.8125 22.539062 -8.75 22 -9.40625 C 21.46875 -10.070312 20.789062 -10.570312 19.96875 -10.90625 C 19.144531 -11.238281 18.238281 -11.46875 17.25 -11.59375 C 16.269531 -11.726562 15.332031 -11.851562 14.4375 -11.96875 C 13.28125 -12.144531 11.992188 -12.363281 10.578125 -12.625 C 9.160156 -12.882812 7.835938 -13.285156 6.609375 -13.828125 C 5.378906 -14.378906 4.34375 -15.125 3.5 -16.0625 C 2.664062 -17.007812 2.25 -18.25 2.25 -19.78125 C 2.25 -21.570312 2.644531 -23.035156 3.4375 -24.171875 C 4.238281 -25.316406 5.257812 -26.210938 6.5 -26.859375 C 7.75 -27.515625 9.140625 -27.972656 10.671875 -28.234375 C 12.203125 -28.492188 13.707031 -28.625 15.1875 -28.625 C 16.976562 -28.625 18.722656 -28.507812 20.421875 -28.28125 C 22.128906 -28.050781 23.820312 -27.644531 25.5 -27.0625 L 25.109375 -25.890625 C 23.804688 -26.410156 22.285156 -26.816406 20.546875 -27.109375 C 18.816406 -27.398438 17.039062 -27.546875 15.21875 -27.546875 C 14.351562 -27.546875 13.441406 -27.476562 12.484375 -27.34375 C 11.535156 -27.21875 10.660156 -26.972656 9.859375 -26.609375 C 9.066406 -26.242188 8.410156 -25.722656 7.890625 -25.046875 C 7.367188 -24.367188 7.109375 -23.476562 7.109375 -22.375 C 7.109375 -21.070312 7.40625 -20.066406 8 -19.359375 C 8.59375 -18.648438 9.410156 -18.113281 10.453125 -17.75 C 11.492188 -17.394531 12.722656 -17.140625 14.140625 -16.984375 C 15.554688 -16.828125 17.085938 -16.628906 18.734375 -16.390625 C 20.671875 -16.128906 22.222656 -15.734375 23.390625 -15.203125 C 24.566406 -14.671875 25.472656 -14.0625 26.109375 -13.375 C 26.742188 -12.695312 27.160156 -11.984375 27.359375 -11.234375 C 27.566406 -10.484375 27.671875 -9.757812 27.671875 -9.0625 Z M 27.671875 -9.0625 "/></g></g></g><g fill="#eaeaea" fill-opacity="1"><g transform="translate(562.467243, 512.163587)"><g><path d="M 5.71875 0 C 5.34375 0 5.023438 -0.0976562 4.765625 -0.296875 C 4.503906 -0.503906 4.296875 -0.765625 4.140625 -1.078125 C 3.984375 -1.398438 3.867188 -1.753906 3.796875 -2.140625 C 3.722656 -2.535156 3.6875 -2.90625 3.6875 -3.25 L 3.6875 -24.5 C 3.6875 -24.851562 3.722656 -25.222656 3.796875 -25.609375 C 3.867188 -26.003906 3.984375 -26.359375 4.140625 -26.671875 C 4.296875 -26.992188 4.503906 -27.253906 4.765625 -27.453125 C 5.023438 -27.660156 5.34375 -27.765625 5.71875 -27.765625 L 27.765625 -27.765625 L 27.765625 -26.671875 L 10.40625 -26.671875 C 9.832031 -26.671875 9.40625 -26.394531 9.125 -25.84375 C 8.851562 -25.300781 8.71875 -24.738281 8.71875 -24.15625 L 8.71875 -15.1875 L 23.859375 -15.1875 L 23.859375 -14.09375 L 8.71875 -14.09375 L 8.71875 -3.59375 C 8.71875 -3.019531 8.851562 -2.457031 9.125 -1.90625 C 9.40625 -1.351562 9.832031 -1.078125 10.40625 -1.078125 L 28.28125 -1.078125 L 28.28125 0 Z M 5.71875 0 "/></g></g></g><g fill="#eaeaea" fill-opacity="1"><g transform="translate(592.043694, 512.163587)"><g><path d="M 25.421875 0 L 23.328125 -5.6875 C 22.867188 -6.988281 22.429688 -8.164062 22.015625 -9.21875 C 21.597656 -10.269531 21.101562 -11.164062 20.53125 -11.90625 C 19.96875 -12.644531 19.273438 -13.207031 18.453125 -13.59375 C 17.628906 -13.988281 16.566406 -14.1875 15.265625 -14.1875 L 10.671875 -14.1875 L 11.1875 -15.265625 L 16.78125 -15.265625 C 17.96875 -15.265625 19 -15.429688 19.875 -15.765625 C 20.757812 -16.097656 21.5 -16.535156 22.09375 -17.078125 C 22.6875 -17.628906 23.132812 -18.257812 23.4375 -18.96875 C 23.75 -19.6875 23.90625 -20.40625 23.90625 -21.125 C 23.90625 -22.738281 23.347656 -24.066406 22.234375 -25.109375 C 21.117188 -26.148438 19.40625 -26.671875 17.09375 -26.671875 L 10.625 -26.671875 C 10.050781 -26.671875 9.625 -26.394531 9.34375 -25.84375 C 9.070312 -25.300781 8.9375 -24.738281 8.9375 -24.15625 L 8.9375 0 L 3.90625 0 L 3.90625 -24.5 C 3.90625 -24.851562 3.941406 -25.222656 4.015625 -25.609375 C 4.085938 -26.003906 4.207031 -26.359375 4.375 -26.671875 C 4.550781 -26.992188 4.769531 -27.253906 5.03125 -27.453125 C 5.289062 -27.660156 5.59375 -27.765625 5.9375 -27.765625 L 18.296875 -27.765625 C 22.347656 -27.765625 25.265625 -27.1875 27.046875 -26.03125 C 28.828125 -24.875 29.71875 -23.328125 29.71875 -21.390625 C 29.71875 -19.878906 29.316406 -18.679688 28.515625 -17.796875 C 27.722656 -16.921875 26.738281 -16.242188 25.5625 -15.765625 C 24.394531 -15.285156 23.128906 -14.972656 21.765625 -14.828125 C 20.410156 -14.691406 19.171875 -14.625 18.046875 -14.625 L 18.046875 -14.53125 C 19.140625 -14.414062 20.1875 -14.234375 21.1875 -13.984375 C 22.1875 -13.742188 23.117188 -13.375 23.984375 -12.875 C 24.847656 -12.382812 25.632812 -11.742188 26.34375 -10.953125 C 27.050781 -10.160156 27.640625 -9.15625 28.109375 -7.9375 L 31.1875 0 Z M 25.421875 0 "/></g></g></g><g fill="#eaeaea" fill-opacity="1"><g transform="translate(624.959422, 512.163587)"><g><path d="M 18.734375 -1.828125 C 18.421875 -1.242188 18.085938 -0.742188 17.734375 -0.328125 C 17.390625 0.0859375 17.03125 0.296875 16.65625 0.296875 C 16.425781 0.296875 16.1875 0.203125 15.9375 0.015625 C 15.695312 -0.171875 15.457031 -0.507812 15.21875 -1 L 1.859375 -27.765625 L 7.71875 -27.765625 L 18.34375 -6.546875 C 18.550781 -6.171875 18.753906 -5.984375 18.953125 -5.984375 C 19.128906 -5.984375 19.296875 -6.078125 19.453125 -6.265625 C 19.609375 -6.453125 19.742188 -6.660156 19.859375 -6.890625 L 30.3125 -27.765625 L 31.75 -27.765625 Z M 18.734375 -1.828125 "/></g></g></g><g fill="#eaeaea" fill-opacity="1"><g transform="translate(658.699102, 512.163587)"><g><path d="M 3.90625 0 L 3.90625 -27.765625 L 8.9375 -27.765625 L 8.9375 0 Z M 3.90625 0 "/></g></g></g><g fill="#eaeaea" fill-opacity="1"><g transform="translate(671.535803, 512.163587)"><g><path d="M 31.3125 -3.078125 C 29.488281 -1.609375 27.4375 -0.582031 25.15625 0 C 22.875 0.582031 20.5625 0.875 18.21875 0.875 C 16.101562 0.875 14.054688 0.570312 12.078125 -0.03125 C 10.097656 -0.644531 8.347656 -1.554688 6.828125 -2.765625 C 5.304688 -3.984375 4.09375 -5.519531 3.1875 -7.375 C 2.28125 -9.226562 1.828125 -11.394531 1.828125 -13.875 C 1.828125 -16.101562 2.28125 -18.128906 3.1875 -19.953125 C 4.09375 -21.773438 5.304688 -23.328125 6.828125 -24.609375 C 8.347656 -25.898438 10.097656 -26.890625 12.078125 -27.578125 C 14.054688 -28.273438 16.101562 -28.625 18.21875 -28.625 C 19.226562 -28.625 20.273438 -28.554688 21.359375 -28.421875 C 22.441406 -28.296875 23.523438 -28.09375 24.609375 -27.8125 C 25.691406 -27.539062 26.75 -27.203125 27.78125 -26.796875 C 28.8125 -26.398438 29.773438 -25.910156 30.671875 -25.328125 L 30.28125 -24.078125 C 28.625 -25.171875 26.71875 -26.019531 24.5625 -26.625 C 22.414062 -27.238281 20.300781 -27.546875 18.21875 -27.546875 C 16.25 -27.546875 14.582031 -27.132812 13.21875 -26.3125 C 11.863281 -25.488281 10.773438 -24.425781 9.953125 -23.125 C 9.128906 -21.820312 8.535156 -20.359375 8.171875 -18.734375 C 7.816406 -17.117188 7.640625 -15.5 7.640625 -13.875 C 7.640625 -12.257812 7.847656 -10.640625 8.265625 -9.015625 C 8.679688 -7.398438 9.363281 -5.941406 10.3125 -4.640625 C 11.269531 -3.335938 12.535156 -2.273438 14.109375 -1.453125 C 15.691406 -0.628906 17.640625 -0.21875 19.953125 -0.21875 C 20.648438 -0.21875 21.46875 -0.300781 22.40625 -0.46875 C 23.34375 -0.644531 24.316406 -0.898438 25.328125 -1.234375 C 26.335938 -1.566406 27.332031 -1.984375 28.3125 -2.484375 C 29.300781 -2.992188 30.1875 -3.566406 30.96875 -4.203125 Z M 31.3125 -3.078125 "/></g></g></g><g fill="#eaeaea" fill-opacity="1"><g transform="translate(704.451531, 512.163587)"><g><path d="M 5.71875 0 C 5.34375 0 5.023438 -0.0976562 4.765625 -0.296875 C 4.503906 -0.503906 4.296875 -0.765625 4.140625 -1.078125 C 3.984375 -1.398438 3.867188 -1.753906 3.796875 -2.140625 C 3.722656 -2.535156 3.6875 -2.90625 3.6875 -3.25 L 3.6875 -24.5 C 3.6875 -24.851562 3.722656 -25.222656 3.796875 -25.609375 C 3.867188 -26.003906 3.984375 -26.359375 4.140625 -26.671875 C 4.296875 -26.992188 4.503906 -27.253906 4.765625 -27.453125 C 5.023438 -27.660156 5.34375 -27.765625 5.71875 -27.765625 L 27.765625 -27.765625 L 27.765625 -26.671875 L 10.40625 -26.671875 C 9.832031 -26.671875 9.40625 -26.394531 9.125 -25.84375 C 8.851562 -25.300781 8.71875 -24.738281 8.71875 -24.15625 L 8.71875 -15.1875 L 23.859375 -15.1875 L 23.859375 -14.09375 L 8.71875 -14.09375 L 8.71875 -3.59375 C 8.71875 -3.019531 8.851562 -2.457031 9.125 -1.90625 C 9.40625 -1.351562 9.832031 -1.078125 10.40625 -1.078125 L 28.28125 -1.078125 L 28.28125 0 Z M 5.71875 0 "/></g></g></g></svg>