<svg xmlns="http://www.w3.org/2000/svg" xmlns:xlink="http://www.w3.org/1999/xlink" width="1000" zoomAndPan="magnify" viewBox="0 0 750 749.999995" height="1000" preserveAspectRatio="xMidYMid meet" version="1.0"><defs><g/><clipPath id="709dc126db"><path d="M 69 241 L 680 241 L 680 413 L 69 413 Z M 69 241 " clip-rule="nonzero"/></clipPath><clipPath id="b32c24bfe8"><path d="M 74.097656 394.644531 C 182.027344 351.792969 201.324219 348.828125 222.867188 345.59375 C 245.304688 342.089844 262.582031 340.472656 292.203125 338.585938 C 345.382812 335.082031 471.035156 335.621094 514.566406 330.769531 C 532.742188 328.613281 542.617188 325.917969 553.160156 323.492188 C 560.566406 321.605469 564.605469 321.066406 572.234375 318.101562 C 584.351562 313.519531 607.6875 301.394531 617.5625 295.195312 C 622.496094 292.230469 623.84375 291.152344 628.332031 287.109375 C 637.753906 278.484375 660.195312 246.144531 668.71875 242.371094 C 671.863281 241.023438 674.105469 241.292969 675.902344 242.640625 C 677.695312 243.988281 679.714844 247.492188 679.941406 250.1875 C 680.164062 252.882812 678.816406 256.65625 677.023438 258.269531 C 675.226562 259.886719 671.636719 260.695312 669.617188 259.886719 C 667.597656 259.078125 665.128906 256.117188 664.457031 253.691406 C 663.785156 251.265625 664.679688 246.953125 666.027344 244.796875 C 667.375 242.910156 670.738281 241.5625 672.757812 241.5625 C 674.554688 241.5625 676.351562 242.371094 677.472656 243.988281 C 678.816406 245.875 680.164062 249.917969 679.941406 252.34375 C 679.941406 254.5 679.265625 255.308594 677.695312 257.730469 C 672.535156 265.816406 650.546875 291.691406 635.0625 304.089844 C 620.476562 315.945312 601.179688 324.300781 587.941406 330.769531 C 578.519531 335.351562 573.804688 337.507812 563.257812 340.472656 C 545.085938 345.324219 519.503906 348.828125 488.316406 351.523438 C 437.378906 356.105469 341.117188 353.410156 285.917969 357.71875 C 247.550781 360.683594 214.789062 363.917969 188.3125 369.578125 C 169.6875 373.621094 158.242188 378.203125 141.640625 384.402344 C 122.117188 391.949219 88.683594 411.351562 79.035156 412.429688 C 76.117188 412.699219 74.996094 412.429688 73.425781 411.351562 C 71.855469 410.273438 70.507812 407.847656 70.058594 405.960938 C 69.613281 403.808594 69.613281 401.113281 70.285156 399.226562 C 70.957031 397.339844 74.097656 394.644531 74.097656 394.644531 " clip-rule="nonzero"/></clipPath></defs><g fill="#15202c" fill-opacity="1"><g transform="translate(54.109087, 415.643599)"><g><path d="M 160.828125 -68.875 C 160.828125 -61.3125 159.296875 -53.46875 156.234375 -45.34375 C 153.171875 -37.21875 148.535156 -29.800781 142.328125 -23.09375 C 136.128906 -16.394531 128.394531 -10.867188 119.125 -6.515625 C 109.851562 -2.171875 98.945312 0 86.40625 0 L 19.25 0 L 19.25 -136.875 L 81.265625 -136.875 C 92.671875 -136.875 103.222656 -135.269531 112.921875 -132.0625 C 122.617188 -128.851562 130.992188 -124.253906 138.046875 -118.265625 C 145.109375 -112.285156 150.671875 -105.125 154.734375 -96.78125 C 158.796875 -88.4375 160.828125 -79.132812 160.828125 -68.875 Z M 132.171875 -71.859375 C 132.171875 -111.640625 113.492188 -131.53125 76.140625 -131.53125 L 44.0625 -131.53125 L 44.0625 -5.34375 L 69.296875 -5.34375 C 80.984375 -5.34375 90.851562 -6.875 98.90625 -9.9375 C 106.96875 -13.007812 113.457031 -17.429688 118.375 -23.203125 C 123.300781 -28.984375 126.832031 -35.972656 128.96875 -44.171875 C 131.101562 -52.367188 132.171875 -61.597656 132.171875 -71.859375 Z M 132.171875 -71.859375 "/></g></g></g><g fill="#15202c" fill-opacity="1"><g transform="translate(224.355269, 415.643599)"><g><path d="M 146.71875 -54.328125 C 146.71875 -33.648438 141.796875 -18.710938 131.953125 -9.515625 C 122.117188 -0.316406 106.863281 4.28125 86.1875 4.28125 C 78.0625 4.28125 70.039062 3.707031 62.125 2.5625 C 54.21875 1.425781 47.160156 -0.816406 40.953125 -4.171875 C 34.753906 -7.523438 29.726562 -12.191406 25.875 -18.171875 C 22.03125 -24.160156 20.109375 -32.003906 20.109375 -41.703125 L 20.109375 -136.875 L 44.90625 -136.875 L 44.90625 -41.921875 C 44.90625 -35.222656 46.046875 -29.34375 48.328125 -24.28125 C 50.609375 -19.21875 53.78125 -14.972656 57.84375 -11.546875 C 61.914062 -8.128906 66.726562 -5.523438 72.28125 -3.734375 C 77.84375 -1.953125 83.90625 -1.0625 90.46875 -1.0625 C 108.289062 -1.0625 121.226562 -5.300781 129.28125 -13.78125 C 137.34375 -22.269531 141.375 -35.710938 141.375 -54.109375 L 141.375 -136.875 L 146.71875 -136.875 Z M 146.71875 -54.328125 "/></g></g></g><g fill="#15202c" fill-opacity="1"><g transform="translate(390.751678, 415.643599)"><g><path d="M 129.609375 0 L 97.09375 -62.453125 L 44.484375 -62.453125 L 13.046875 0 L 6.203125 0 L 76.140625 -136.234375 C 77.847656 -139.515625 79.554688 -141.15625 81.265625 -141.15625 C 82.554688 -141.15625 83.804688 -140.367188 85.015625 -138.796875 C 86.222656 -137.234375 87.398438 -135.3125 88.546875 -133.03125 L 159.765625 0 Z M 73.578125 -107.359375 C 72.148438 -109.929688 71.007812 -111.21875 70.15625 -111.21875 C 69.4375 -111.21875 68.898438 -110.894531 68.546875 -110.25 C 68.191406 -109.613281 67.867188 -108.9375 67.578125 -108.21875 L 47.265625 -67.796875 L 94.3125 -67.796875 Z M 73.578125 -107.359375 "/></g></g></g><g fill="#15202c" fill-opacity="1"><g transform="translate(557.14808, 415.643599)"><g><path d="M 30.15625 0 C 28.300781 0 26.734375 -0.5 25.453125 -1.5 C 24.171875 -2.5 23.132812 -3.78125 22.34375 -5.34375 C 21.5625 -6.914062 20.992188 -8.660156 20.640625 -10.578125 C 20.285156 -12.503906 20.109375 -14.328125 20.109375 -16.046875 L 20.109375 -136.875 L 44.90625 -136.875 L 44.90625 -17.75 C 44.90625 -14.894531 45.582031 -12.113281 46.9375 -9.40625 C 48.300781 -6.695312 50.40625 -5.34375 53.25 -5.34375 L 134.953125 -5.34375 L 134.953125 0 Z M 30.15625 0 "/></g></g></g><g clip-path="url(#709dc126db)"><g clip-path="url(#b32c24bfe8)"><path fill="#f3f4f6" d="M 61.085938 230.78125 L 688.914062 230.78125 L 688.914062 423.210938 L 61.085938 423.210938 Z M 61.085938 230.78125 " fill-opacity="1" fill-rule="nonzero"/></g></g><g fill="#15202c" fill-opacity="1"><g transform="translate(60.16964, 494.305724)"><g><path d="M 23.203125 -7.609375 C 23.203125 -6.003906 22.832031 -4.664062 22.09375 -3.59375 C 21.351562 -2.53125 20.398438 -1.675781 19.234375 -1.03125 C 18.078125 -0.394531 16.796875 0.0546875 15.390625 0.328125 C 13.984375 0.597656 12.625 0.734375 11.3125 0.734375 C 10.414062 0.734375 9.5 0.675781 8.5625 0.5625 C 7.632812 0.457031 6.742188 0.320312 5.890625 0.15625 C 5.046875 0 4.265625 -0.1875 3.546875 -0.40625 C 2.828125 -0.625 2.210938 -0.84375 1.703125 -1.0625 L 1.890625 -2.078125 C 2.421875 -1.859375 3.070312 -1.632812 3.84375 -1.40625 C 4.625 -1.175781 5.429688 -0.96875 6.265625 -0.78125 C 7.109375 -0.601562 7.945312 -0.457031 8.78125 -0.34375 C 9.625 -0.238281 10.382812 -0.1875 11.0625 -0.1875 C 11.9375 -0.1875 12.847656 -0.257812 13.796875 -0.40625 C 14.753906 -0.550781 15.628906 -0.816406 16.421875 -1.203125 C 17.210938 -1.585938 17.863281 -2.128906 18.375 -2.828125 C 18.882812 -3.535156 19.140625 -4.4375 19.140625 -5.53125 C 19.140625 -6.550781 18.910156 -7.335938 18.453125 -7.890625 C 18.003906 -8.453125 17.4375 -8.867188 16.75 -9.140625 C 16.0625 -9.421875 15.300781 -9.613281 14.46875 -9.71875 C 13.644531 -9.832031 12.859375 -9.941406 12.109375 -10.046875 C 11.140625 -10.179688 10.0625 -10.359375 8.875 -10.578125 C 7.6875 -10.796875 6.578125 -11.132812 5.546875 -11.59375 C 4.515625 -12.0625 3.644531 -12.6875 2.9375 -13.46875 C 2.238281 -14.257812 1.890625 -15.300781 1.890625 -16.59375 C 1.890625 -18.09375 2.222656 -19.320312 2.890625 -20.28125 C 3.554688 -21.238281 4.410156 -21.988281 5.453125 -22.53125 C 6.492188 -23.082031 7.65625 -23.460938 8.9375 -23.671875 C 10.226562 -23.890625 11.492188 -24 12.734375 -24 C 14.234375 -24 15.695312 -23.898438 17.125 -23.703125 C 18.5625 -23.515625 19.984375 -23.179688 21.390625 -22.703125 L 21.0625 -21.71875 C 19.96875 -22.15625 18.691406 -22.492188 17.234375 -22.734375 C 15.785156 -22.972656 14.296875 -23.09375 12.765625 -23.09375 C 12.035156 -23.09375 11.269531 -23.035156 10.46875 -22.921875 C 9.675781 -22.816406 8.945312 -22.613281 8.28125 -22.3125 C 7.613281 -22.007812 7.0625 -21.570312 6.625 -21 C 6.1875 -20.4375 5.96875 -19.691406 5.96875 -18.765625 C 5.96875 -17.671875 6.210938 -16.828125 6.703125 -16.234375 C 7.203125 -15.640625 7.890625 -15.191406 8.765625 -14.890625 C 9.640625 -14.585938 10.671875 -14.367188 11.859375 -14.234375 C 13.046875 -14.109375 14.332031 -13.945312 15.71875 -13.75 C 17.34375 -13.53125 18.644531 -13.195312 19.625 -12.75 C 20.601562 -12.300781 21.359375 -11.789062 21.890625 -11.21875 C 22.429688 -10.644531 22.785156 -10.039062 22.953125 -9.40625 C 23.117188 -8.78125 23.203125 -8.179688 23.203125 -7.609375 Z M 23.203125 -7.609375 "/></g></g></g><g fill="#15202c" fill-opacity="1"><g transform="translate(85.08655, 494.305724)"><g><path d="M 26.265625 -2.578125 C 24.734375 -1.347656 23.007812 -0.488281 21.09375 0 C 19.175781 0.488281 17.238281 0.734375 15.28125 0.734375 C 13.507812 0.734375 11.789062 0.476562 10.125 -0.03125 C 8.46875 -0.539062 7 -1.304688 5.71875 -2.328125 C 4.445312 -3.347656 3.429688 -4.632812 2.671875 -6.1875 C 1.910156 -7.738281 1.53125 -9.554688 1.53125 -11.640625 C 1.53125 -13.503906 1.910156 -15.203125 2.671875 -16.734375 C 3.429688 -18.265625 4.445312 -19.566406 5.71875 -20.640625 C 7 -21.722656 8.46875 -22.550781 10.125 -23.125 C 11.789062 -23.707031 13.507812 -24 15.28125 -24 C 16.125 -24 17 -23.945312 17.90625 -23.84375 C 18.820312 -23.738281 19.734375 -23.566406 20.640625 -23.328125 C 21.546875 -23.097656 22.429688 -22.8125 23.296875 -22.46875 C 24.160156 -22.132812 24.96875 -21.726562 25.71875 -21.25 L 25.390625 -20.1875 C 24.003906 -21.113281 22.40625 -21.828125 20.59375 -22.328125 C 18.789062 -22.835938 17.019531 -23.09375 15.28125 -23.09375 C 13.625 -23.09375 12.226562 -22.75 11.09375 -22.0625 C 9.957031 -21.375 9.039062 -20.484375 8.34375 -19.390625 C 7.65625 -18.296875 7.160156 -17.066406 6.859375 -15.703125 C 6.554688 -14.347656 6.40625 -12.992188 6.40625 -11.640625 C 6.40625 -10.285156 6.578125 -8.925781 6.921875 -7.5625 C 7.273438 -6.207031 7.851562 -4.984375 8.65625 -3.890625 C 9.457031 -2.796875 10.519531 -1.90625 11.84375 -1.21875 C 13.164062 -0.53125 14.796875 -0.1875 16.734375 -0.1875 C 17.316406 -0.1875 18 -0.257812 18.78125 -0.40625 C 19.570312 -0.550781 20.390625 -0.757812 21.234375 -1.03125 C 22.085938 -1.3125 22.925781 -1.664062 23.75 -2.09375 C 24.570312 -2.519531 25.3125 -3 25.96875 -3.53125 Z M 26.265625 -2.578125 "/></g></g></g><g fill="#15202c" fill-opacity="1"><g transform="translate(112.695214, 494.305724)"><g><path d="M 21.390625 0 L 21.390625 -11.828125 L 8.984375 -11.828125 L 9.421875 -12.734375 L 21.390625 -12.734375 L 21.390625 -23.28125 L 25.609375 -23.28125 L 25.609375 0 Z M 3.3125 0 L 3.3125 -23.28125 L 7.53125 -23.28125 L 7.53125 0 Z M 3.3125 0 "/></g></g></g><g fill="#15202c" fill-opacity="1"><g transform="translate(141.64975, 494.305724)"><g><path d="M 5.125 0 C 4.8125 0 4.546875 -0.0820312 4.328125 -0.25 C 4.109375 -0.425781 3.929688 -0.644531 3.796875 -0.90625 C 3.660156 -1.175781 3.5625 -1.472656 3.5 -1.796875 C 3.445312 -2.128906 3.421875 -2.441406 3.421875 -2.734375 L 3.421875 -23.28125 L 7.640625 -23.28125 L 7.640625 -3.015625 C 7.640625 -2.535156 7.753906 -2.0625 7.984375 -1.59375 C 8.210938 -1.132812 8.570312 -0.90625 9.0625 -0.90625 L 22.953125 -0.90625 L 22.953125 0 Z M 5.125 0 "/></g></g></g><g fill="#15202c" fill-opacity="1"><g transform="translate(165.329909, 494.305724)"><g><path d="M 24.953125 -9.234375 C 24.953125 -5.722656 24.113281 -3.179688 22.4375 -1.609375 C 20.769531 -0.046875 18.175781 0.734375 14.65625 0.734375 C 13.269531 0.734375 11.90625 0.632812 10.5625 0.4375 C 9.21875 0.238281 8.019531 -0.140625 6.96875 -0.703125 C 5.914062 -1.273438 5.0625 -2.070312 4.40625 -3.09375 C 3.75 -4.113281 3.421875 -5.445312 3.421875 -7.09375 L 3.421875 -23.28125 L 7.640625 -23.28125 L 7.640625 -7.125 C 7.640625 -5.988281 7.832031 -4.988281 8.21875 -4.125 C 8.601562 -3.269531 9.140625 -2.550781 9.828125 -1.96875 C 10.523438 -1.382812 11.347656 -0.941406 12.296875 -0.640625 C 13.242188 -0.335938 14.273438 -0.1875 15.390625 -0.1875 C 18.421875 -0.1875 20.617188 -0.90625 21.984375 -2.34375 C 23.359375 -3.789062 24.046875 -6.078125 24.046875 -9.203125 L 24.046875 -23.28125 L 24.953125 -23.28125 Z M 21.53125 -27.828125 C 21.53125 -27.242188 21.3125 -26.734375 20.875 -26.296875 C 20.4375 -25.859375 19.925781 -25.640625 19.34375 -25.640625 C 18.769531 -25.640625 18.265625 -25.859375 17.828125 -26.296875 C 17.390625 -26.734375 17.171875 -27.242188 17.171875 -27.828125 C 17.171875 -28.410156 17.390625 -28.921875 17.828125 -29.359375 C 18.265625 -29.796875 18.769531 -30.015625 19.34375 -30.015625 C 19.925781 -30.015625 20.4375 -29.796875 20.875 -29.359375 C 21.3125 -28.921875 21.53125 -28.410156 21.53125 -27.828125 Z M 14.046875 -27.828125 C 14.046875 -27.242188 13.828125 -26.734375 13.390625 -26.296875 C 12.953125 -25.859375 12.441406 -25.640625 11.859375 -25.640625 C 11.273438 -25.640625 10.765625 -25.859375 10.328125 -26.296875 C 9.890625 -26.734375 9.671875 -27.242188 9.671875 -27.828125 C 9.671875 -28.410156 9.890625 -28.921875 10.328125 -29.359375 C 10.765625 -29.796875 11.273438 -30.015625 11.859375 -30.015625 C 12.441406 -30.015625 12.953125 -29.796875 13.390625 -29.359375 C 13.828125 -28.921875 14.046875 -28.410156 14.046875 -27.828125 Z M 14.046875 -27.828125 "/></g></g></g><g fill="#15202c" fill-opacity="1"><g transform="translate(193.629693, 494.305724)"><g><path d="M 23.203125 -7.609375 C 23.203125 -6.003906 22.832031 -4.664062 22.09375 -3.59375 C 21.351562 -2.53125 20.398438 -1.675781 19.234375 -1.03125 C 18.078125 -0.394531 16.796875 0.0546875 15.390625 0.328125 C 13.984375 0.597656 12.625 0.734375 11.3125 0.734375 C 10.414062 0.734375 9.5 0.675781 8.5625 0.5625 C 7.632812 0.457031 6.742188 0.320312 5.890625 0.15625 C 5.046875 0 4.265625 -0.1875 3.546875 -0.40625 C 2.828125 -0.625 2.210938 -0.84375 1.703125 -1.0625 L 1.890625 -2.078125 C 2.421875 -1.859375 3.070312 -1.632812 3.84375 -1.40625 C 4.625 -1.175781 5.429688 -0.96875 6.265625 -0.78125 C 7.109375 -0.601562 7.945312 -0.457031 8.78125 -0.34375 C 9.625 -0.238281 10.382812 -0.1875 11.0625 -0.1875 C 11.9375 -0.1875 12.847656 -0.257812 13.796875 -0.40625 C 14.753906 -0.550781 15.628906 -0.816406 16.421875 -1.203125 C 17.210938 -1.585938 17.863281 -2.128906 18.375 -2.828125 C 18.882812 -3.535156 19.140625 -4.4375 19.140625 -5.53125 C 19.140625 -6.550781 18.910156 -7.335938 18.453125 -7.890625 C 18.003906 -8.453125 17.4375 -8.867188 16.75 -9.140625 C 16.0625 -9.421875 15.300781 -9.613281 14.46875 -9.71875 C 13.644531 -9.832031 12.859375 -9.941406 12.109375 -10.046875 C 11.140625 -10.179688 10.0625 -10.359375 8.875 -10.578125 C 7.6875 -10.796875 6.578125 -11.132812 5.546875 -11.59375 C 4.515625 -12.0625 3.644531 -12.6875 2.9375 -13.46875 C 2.238281 -14.257812 1.890625 -15.300781 1.890625 -16.59375 C 1.890625 -18.09375 2.222656 -19.320312 2.890625 -20.28125 C 3.554688 -21.238281 4.410156 -21.988281 5.453125 -22.53125 C 6.492188 -23.082031 7.65625 -23.460938 8.9375 -23.671875 C 10.226562 -23.890625 11.492188 -24 12.734375 -24 C 14.234375 -24 15.695312 -23.898438 17.125 -23.703125 C 18.5625 -23.515625 19.984375 -23.179688 21.390625 -22.703125 L 21.0625 -21.71875 C 19.96875 -22.15625 18.691406 -22.492188 17.234375 -22.734375 C 15.785156 -22.972656 14.296875 -23.09375 12.765625 -23.09375 C 12.035156 -23.09375 11.269531 -23.035156 10.46875 -22.921875 C 9.675781 -22.816406 8.945312 -22.613281 8.28125 -22.3125 C 7.613281 -22.007812 7.0625 -21.570312 6.625 -21 C 6.1875 -20.4375 5.96875 -19.691406 5.96875 -18.765625 C 5.96875 -17.671875 6.210938 -16.828125 6.703125 -16.234375 C 7.203125 -15.640625 7.890625 -15.191406 8.765625 -14.890625 C 9.640625 -14.585938 10.671875 -14.367188 11.859375 -14.234375 C 13.046875 -14.109375 14.332031 -13.945312 15.71875 -13.75 C 17.34375 -13.53125 18.644531 -13.195312 19.625 -12.75 C 20.601562 -12.300781 21.359375 -11.789062 21.890625 -11.21875 C 22.429688 -10.644531 22.785156 -10.039062 22.953125 -9.40625 C 23.117188 -8.78125 23.203125 -8.179688 23.203125 -7.609375 Z M 23.203125 -7.609375 "/></g></g></g><g fill="#15202c" fill-opacity="1"><g transform="translate(218.546603, 494.305724)"><g><path d="M 23.203125 -7.609375 C 23.203125 -6.003906 22.832031 -4.664062 22.09375 -3.59375 C 21.351562 -2.53125 20.398438 -1.675781 19.234375 -1.03125 C 18.078125 -0.394531 16.796875 0.0546875 15.390625 0.328125 C 13.984375 0.597656 12.625 0.734375 11.3125 0.734375 C 10.414062 0.734375 9.5 0.675781 8.5625 0.5625 C 7.632812 0.457031 6.742188 0.320312 5.890625 0.15625 C 5.046875 0 4.265625 -0.1875 3.546875 -0.40625 C 2.828125 -0.625 2.210938 -0.84375 1.703125 -1.0625 L 1.890625 -2.078125 C 2.421875 -1.859375 3.070312 -1.632812 3.84375 -1.40625 C 4.625 -1.175781 5.429688 -0.96875 6.265625 -0.78125 C 7.109375 -0.601562 7.945312 -0.457031 8.78125 -0.34375 C 9.625 -0.238281 10.382812 -0.1875 11.0625 -0.1875 C 11.9375 -0.1875 12.847656 -0.257812 13.796875 -0.40625 C 14.753906 -0.550781 15.628906 -0.816406 16.421875 -1.203125 C 17.210938 -1.585938 17.863281 -2.128906 18.375 -2.828125 C 18.882812 -3.535156 19.140625 -4.4375 19.140625 -5.53125 C 19.140625 -6.550781 18.910156 -7.335938 18.453125 -7.890625 C 18.003906 -8.453125 17.4375 -8.867188 16.75 -9.140625 C 16.0625 -9.421875 15.300781 -9.613281 14.46875 -9.71875 C 13.644531 -9.832031 12.859375 -9.941406 12.109375 -10.046875 C 11.140625 -10.179688 10.0625 -10.359375 8.875 -10.578125 C 7.6875 -10.796875 6.578125 -11.132812 5.546875 -11.59375 C 4.515625 -12.0625 3.644531 -12.6875 2.9375 -13.46875 C 2.238281 -14.257812 1.890625 -15.300781 1.890625 -16.59375 C 1.890625 -18.09375 2.222656 -19.320312 2.890625 -20.28125 C 3.554688 -21.238281 4.410156 -21.988281 5.453125 -22.53125 C 6.492188 -23.082031 7.65625 -23.460938 8.9375 -23.671875 C 10.226562 -23.890625 11.492188 -24 12.734375 -24 C 14.234375 -24 15.695312 -23.898438 17.125 -23.703125 C 18.5625 -23.515625 19.984375 -23.179688 21.390625 -22.703125 L 21.0625 -21.71875 C 19.96875 -22.15625 18.691406 -22.492188 17.234375 -22.734375 C 15.785156 -22.972656 14.296875 -23.09375 12.765625 -23.09375 C 12.035156 -23.09375 11.269531 -23.035156 10.46875 -22.921875 C 9.675781 -22.816406 8.945312 -22.613281 8.28125 -22.3125 C 7.613281 -22.007812 7.0625 -21.570312 6.625 -21 C 6.1875 -20.4375 5.96875 -19.691406 5.96875 -18.765625 C 5.96875 -17.671875 6.210938 -16.828125 6.703125 -16.234375 C 7.203125 -15.640625 7.890625 -15.191406 8.765625 -14.890625 C 9.640625 -14.585938 10.671875 -14.367188 11.859375 -14.234375 C 13.046875 -14.109375 14.332031 -13.945312 15.71875 -13.75 C 17.34375 -13.53125 18.644531 -13.195312 19.625 -12.75 C 20.601562 -12.300781 21.359375 -11.789062 21.890625 -11.21875 C 22.429688 -10.644531 22.785156 -10.039062 22.953125 -9.40625 C 23.117188 -8.78125 23.203125 -8.179688 23.203125 -7.609375 Z M 23.203125 -7.609375 "/></g></g></g><g fill="#15202c" fill-opacity="1"><g transform="translate(243.463514, 494.305724)"><g><path d="M 4.796875 0 C 4.484375 0 4.21875 -0.0820312 4 -0.25 C 3.78125 -0.425781 3.601562 -0.644531 3.46875 -0.90625 C 3.34375 -1.175781 3.25 -1.472656 3.1875 -1.796875 C 3.125 -2.128906 3.09375 -2.441406 3.09375 -2.734375 L 3.09375 -20.546875 C 3.09375 -20.835938 3.125 -21.144531 3.1875 -21.46875 C 3.25 -21.800781 3.34375 -22.097656 3.46875 -22.359375 C 3.601562 -22.628906 3.78125 -22.847656 4 -23.015625 C 4.21875 -23.191406 4.484375 -23.28125 4.796875 -23.28125 L 23.28125 -23.28125 L 23.28125 -22.375 L 8.734375 -22.375 C 8.242188 -22.375 7.882812 -22.140625 7.65625 -21.671875 C 7.425781 -21.210938 7.3125 -20.742188 7.3125 -20.265625 L 7.3125 -12.734375 L 20 -12.734375 L 20 -11.828125 L 7.3125 -11.828125 L 7.3125 -3.015625 C 7.3125 -2.535156 7.425781 -2.0625 7.65625 -1.59375 C 7.882812 -1.132812 8.242188 -0.90625 8.734375 -0.90625 L 23.71875 -0.90625 L 23.71875 0 Z M 4.796875 0 "/></g></g></g><g fill="#15202c" fill-opacity="1"><g transform="translate(268.271282, 494.305724)"><g><path d="M 5.125 0 C 4.8125 0 4.546875 -0.0820312 4.328125 -0.25 C 4.109375 -0.425781 3.929688 -0.644531 3.796875 -0.90625 C 3.660156 -1.175781 3.5625 -1.472656 3.5 -1.796875 C 3.445312 -2.128906 3.421875 -2.441406 3.421875 -2.734375 L 3.421875 -23.28125 L 7.640625 -23.28125 L 7.640625 -3.015625 C 7.640625 -2.535156 7.753906 -2.0625 7.984375 -1.59375 C 8.210938 -1.132812 8.570312 -0.90625 9.0625 -0.90625 L 22.953125 -0.90625 L 22.953125 0 Z M 5.125 0 "/></g></g></g><g fill="#15202c" fill-opacity="1"><g transform="translate(291.951441, 494.305724)"><g/></g></g><g fill="#15202c" fill-opacity="1"><g transform="translate(303.736955, 494.305724)"><g><path d="M 20.265625 0 L 17.859375 -1.703125 C 16.503906 -0.859375 15.203125 -0.242188 13.953125 0.140625 C 12.703125 0.535156 11.253906 0.734375 9.609375 0.734375 C 8.703125 0.734375 7.800781 0.625 6.90625 0.40625 C 6.007812 0.1875 5.195312 -0.140625 4.46875 -0.578125 C 3.75 -1.015625 3.160156 -1.578125 2.703125 -2.265625 C 2.253906 -2.960938 2.03125 -3.785156 2.03125 -4.734375 C 2.03125 -6.066406 2.332031 -7.15625 2.9375 -8 C 3.550781 -8.851562 4.21875 -9.523438 4.9375 -10.015625 C 5.664062 -10.515625 6.347656 -10.875 6.984375 -11.09375 C 7.617188 -11.3125 7.957031 -11.46875 8 -11.5625 C 7.613281 -11.957031 7.273438 -12.40625 6.984375 -12.90625 C 6.691406 -13.394531 6.441406 -13.953125 6.234375 -14.578125 C 6.023438 -15.210938 5.921875 -15.957031 5.921875 -16.8125 C 5.921875 -17.582031 6.070312 -18.300781 6.375 -18.96875 C 6.6875 -19.632812 7.109375 -20.222656 7.640625 -20.734375 C 8.171875 -21.242188 8.804688 -21.644531 9.546875 -21.9375 C 10.285156 -22.226562 11.101562 -22.375 12 -22.375 C 12.75 -22.375 13.453125 -22.28125 14.109375 -22.09375 C 14.765625 -21.914062 15.328125 -21.644531 15.796875 -21.28125 C 16.273438 -20.914062 16.648438 -20.472656 16.921875 -19.953125 C 17.203125 -19.429688 17.34375 -18.84375 17.34375 -18.1875 C 17.34375 -17.4375 17.164062 -16.734375 16.8125 -16.078125 C 16.46875 -15.421875 16.015625 -14.84375 15.453125 -14.34375 C 14.898438 -13.851562 14.273438 -13.429688 13.578125 -13.078125 C 12.890625 -12.722656 12.207031 -12.460938 11.53125 -12.296875 C 11.875 -11.878906 12.398438 -11.300781 13.109375 -10.5625 C 13.828125 -9.820312 14.585938 -9.0625 15.390625 -8.28125 C 16.191406 -7.507812 16.972656 -6.789062 17.734375 -6.125 C 18.492188 -5.457031 19.09375 -4.992188 19.53125 -4.734375 C 20.625 -5.992188 21.332031 -7.21875 21.65625 -8.40625 C 21.988281 -9.59375 22.15625 -10.660156 22.15625 -11.609375 L 23.0625 -11.609375 C 23.0625 -10.316406 22.863281 -9.082031 22.46875 -7.90625 C 22.082031 -6.726562 21.359375 -5.488281 20.296875 -4.1875 C 20.515625 -3.988281 20.734375 -3.789062 20.953125 -3.59375 C 21.148438 -3.425781 21.347656 -3.25 21.546875 -3.0625 C 21.753906 -2.882812 21.957031 -2.722656 22.15625 -2.578125 C 22.488281 -2.316406 22.867188 -2.03125 23.296875 -1.71875 C 23.722656 -1.414062 24.117188 -1.132812 24.484375 -0.875 C 24.941406 -0.582031 25.390625 -0.289062 25.828125 0 Z M 14.15625 -17.421875 C 14.15625 -17.929688 14.097656 -18.421875 13.984375 -18.890625 C 13.878906 -19.367188 13.695312 -19.800781 13.4375 -20.1875 C 13.1875 -20.570312 12.851562 -20.878906 12.4375 -21.109375 C 12.03125 -21.347656 11.519531 -21.46875 10.90625 -21.46875 C 10.039062 -21.46875 9.367188 -21.210938 8.890625 -20.703125 C 8.421875 -20.191406 8.1875 -19.507812 8.1875 -18.65625 C 8.1875 -17.445312 8.457031 -16.394531 9 -15.5 C 9.550781 -14.601562 10.238281 -13.738281 11.0625 -12.90625 C 12.007812 -13.46875 12.757812 -14.085938 13.3125 -14.765625 C 13.875 -15.441406 14.15625 -16.328125 14.15625 -17.421875 Z M 17.171875 -2.328125 C 16.710938 -2.617188 16.066406 -3.140625 15.234375 -3.890625 C 14.410156 -4.640625 13.554688 -5.457031 12.671875 -6.34375 C 11.785156 -7.226562 10.953125 -8.09375 10.171875 -8.9375 C 9.398438 -9.789062 8.8125 -10.445312 8.40625 -10.90625 C 7.695312 -10.375 7.132812 -9.847656 6.71875 -9.328125 C 6.3125 -8.804688 6.109375 -8.070312 6.109375 -7.125 C 6.109375 -5.988281 6.269531 -5.015625 6.59375 -4.203125 C 6.925781 -3.390625 7.382812 -2.726562 7.96875 -2.21875 C 8.550781 -1.707031 9.234375 -1.332031 10.015625 -1.09375 C 10.804688 -0.851562 11.660156 -0.734375 12.578125 -0.734375 C 13.453125 -0.734375 14.273438 -0.894531 15.046875 -1.21875 C 15.828125 -1.539062 16.535156 -1.910156 17.171875 -2.328125 Z M 17.171875 -2.328125 "/></g></g></g><g fill="#15202c" fill-opacity="1"><g transform="translate(341.785263, 494.305724)"><g><path d="M 21.390625 0 L 21.390625 -11.828125 L 8.984375 -11.828125 L 9.421875 -12.734375 L 21.390625 -12.734375 L 21.390625 -23.28125 L 25.609375 -23.28125 L 25.609375 0 Z M 3.3125 0 L 3.3125 -23.28125 L 7.53125 -23.28125 L 7.53125 0 Z M 3.3125 0 "/></g></g></g><g fill="#15202c" fill-opacity="1"><g transform="translate(370.739798, 494.305724)"><g><path d="M 22.046875 0 L 16.515625 -10.625 L 7.5625 -10.625 L 2.21875 0 L 1.0625 0 L 12.953125 -23.171875 C 13.242188 -23.722656 13.535156 -24 13.828125 -24 C 14.046875 -24 14.253906 -23.863281 14.453125 -23.59375 C 14.660156 -23.332031 14.863281 -23.007812 15.0625 -22.625 L 27.171875 0 Z M 12.515625 -18.265625 C 12.273438 -18.703125 12.082031 -18.921875 11.9375 -18.921875 C 11.8125 -18.921875 11.71875 -18.863281 11.65625 -18.75 C 11.59375 -18.644531 11.539062 -18.53125 11.5 -18.40625 L 8.03125 -11.53125 L 16.046875 -11.53125 Z M 12.515625 -18.265625 "/></g></g></g><g fill="#15202c" fill-opacity="1"><g transform="translate(399.039571, 494.305724)"><g><path d="M 24.484375 -0.65625 C 24.484375 -0.238281 24.410156 0.0507812 24.265625 0.21875 C 24.117188 0.382812 23.9375 0.46875 23.71875 0.46875 C 23.375 0.46875 22.992188 0.335938 22.578125 0.078125 C 22.171875 -0.171875 21.859375 -0.414062 21.640625 -0.65625 L 4.734375 -18.046875 C 4.628906 -18.140625 4.539062 -18.1875 4.46875 -18.1875 C 4.351562 -18.1875 4.296875 -18.085938 4.296875 -17.890625 L 4.296875 0 L 3.390625 0 L 3.390625 -22.84375 C 3.390625 -23.257812 3.484375 -23.554688 3.671875 -23.734375 C 3.867188 -23.910156 4.113281 -24 4.40625 -24 C 4.957031 -24 5.488281 -23.75 6 -23.25 L 22.953125 -5.890625 C 23.117188 -5.722656 23.253906 -5.640625 23.359375 -5.640625 C 23.429688 -5.640625 23.484375 -5.679688 23.515625 -5.765625 C 23.554688 -5.847656 23.578125 -5.925781 23.578125 -6 L 23.578125 -23.28125 L 24.484375 -23.28125 Z M 24.484375 -0.65625 "/></g></g></g><g fill="#15202c" fill-opacity="1"><g transform="translate(426.648235, 494.305724)"><g><path d="M 27.359375 -11.71875 C 27.359375 -10.425781 27.097656 -9.085938 26.578125 -7.703125 C 26.054688 -6.328125 25.265625 -5.066406 24.203125 -3.921875 C 23.148438 -2.785156 21.832031 -1.847656 20.25 -1.109375 C 18.675781 -0.367188 16.828125 0 14.703125 0 L 3.28125 0 L 3.28125 -23.28125 L 13.828125 -23.28125 C 15.765625 -23.28125 17.554688 -23.003906 19.203125 -22.453125 C 20.847656 -21.910156 22.269531 -21.128906 23.46875 -20.109375 C 24.675781 -19.097656 25.625 -17.878906 26.3125 -16.453125 C 27.007812 -15.035156 27.359375 -13.457031 27.359375 -11.71875 Z M 22.484375 -12.21875 C 22.484375 -18.988281 19.304688 -22.375 12.953125 -22.375 L 7.5 -22.375 L 7.5 -0.90625 L 11.78125 -0.90625 C 13.769531 -0.90625 15.445312 -1.164062 16.8125 -1.6875 C 18.1875 -2.207031 19.289062 -2.957031 20.125 -3.9375 C 20.96875 -4.925781 21.570312 -6.117188 21.9375 -7.515625 C 22.300781 -8.910156 22.484375 -10.476562 22.484375 -12.21875 Z M 22.484375 -12.21875 "/></g></g></g><g fill="#15202c" fill-opacity="1"><g transform="translate(455.60277, 494.305724)"><g><path d="M 15.34375 -10.40625 L 15.34375 0 L 11.125 0 L 11.125 -9.828125 L 0.90625 -23.28125 L 5.703125 -23.28125 L 14.703125 -11.34375 L 23.578125 -23.28125 L 25.03125 -23.28125 Z M 15.34375 -10.40625 "/></g></g></g><g fill="#15202c" fill-opacity="1"><g transform="translate(481.86554, 494.305724)"><g/></g></g><g fill="#15202c" fill-opacity="1"><g transform="translate(493.651032, 494.305724)"><g><path d="M 23.203125 -7.609375 C 23.203125 -6.003906 22.832031 -4.664062 22.09375 -3.59375 C 21.351562 -2.53125 20.398438 -1.675781 19.234375 -1.03125 C 18.078125 -0.394531 16.796875 0.0546875 15.390625 0.328125 C 13.984375 0.597656 12.625 0.734375 11.3125 0.734375 C 10.414062 0.734375 9.5 0.675781 8.5625 0.5625 C 7.632812 0.457031 6.742188 0.320312 5.890625 0.15625 C 5.046875 0 4.265625 -0.1875 3.546875 -0.40625 C 2.828125 -0.625 2.210938 -0.84375 1.703125 -1.0625 L 1.890625 -2.078125 C 2.421875 -1.859375 3.070312 -1.632812 3.84375 -1.40625 C 4.625 -1.175781 5.429688 -0.96875 6.265625 -0.78125 C 7.109375 -0.601562 7.945312 -0.457031 8.78125 -0.34375 C 9.625 -0.238281 10.382812 -0.1875 11.0625 -0.1875 C 11.9375 -0.1875 12.847656 -0.257812 13.796875 -0.40625 C 14.753906 -0.550781 15.628906 -0.816406 16.421875 -1.203125 C 17.210938 -1.585938 17.863281 -2.128906 18.375 -2.828125 C 18.882812 -3.535156 19.140625 -4.4375 19.140625 -5.53125 C 19.140625 -6.550781 18.910156 -7.335938 18.453125 -7.890625 C 18.003906 -8.453125 17.4375 -8.867188 16.75 -9.140625 C 16.0625 -9.421875 15.300781 -9.613281 14.46875 -9.71875 C 13.644531 -9.832031 12.859375 -9.941406 12.109375 -10.046875 C 11.140625 -10.179688 10.0625 -10.359375 8.875 -10.578125 C 7.6875 -10.796875 6.578125 -11.132812 5.546875 -11.59375 C 4.515625 -12.0625 3.644531 -12.6875 2.9375 -13.46875 C 2.238281 -14.257812 1.890625 -15.300781 1.890625 -16.59375 C 1.890625 -18.09375 2.222656 -19.320312 2.890625 -20.28125 C 3.554688 -21.238281 4.410156 -21.988281 5.453125 -22.53125 C 6.492188 -23.082031 7.65625 -23.460938 8.9375 -23.671875 C 10.226562 -23.890625 11.492188 -24 12.734375 -24 C 14.234375 -24 15.695312 -23.898438 17.125 -23.703125 C 18.5625 -23.515625 19.984375 -23.179688 21.390625 -22.703125 L 21.0625 -21.71875 C 19.96875 -22.15625 18.691406 -22.492188 17.234375 -22.734375 C 15.785156 -22.972656 14.296875 -23.09375 12.765625 -23.09375 C 12.035156 -23.09375 11.269531 -23.035156 10.46875 -22.921875 C 9.675781 -22.816406 8.945312 -22.613281 8.28125 -22.3125 C 7.613281 -22.007812 7.0625 -21.570312 6.625 -21 C 6.1875 -20.4375 5.96875 -19.691406 5.96875 -18.765625 C 5.96875 -17.671875 6.210938 -16.828125 6.703125 -16.234375 C 7.203125 -15.640625 7.890625 -15.191406 8.765625 -14.890625 C 9.640625 -14.585938 10.671875 -14.367188 11.859375 -14.234375 C 13.046875 -14.109375 14.332031 -13.945312 15.71875 -13.75 C 17.34375 -13.53125 18.644531 -13.195312 19.625 -12.75 C 20.601562 -12.300781 21.359375 -11.789062 21.890625 -11.21875 C 22.429688 -10.644531 22.785156 -10.039062 22.953125 -9.40625 C 23.117188 -8.78125 23.203125 -8.179688 23.203125 -7.609375 Z M 23.203125 -7.609375 "/></g></g></g><g fill="#15202c" fill-opacity="1"><g transform="translate(518.567931, 494.305724)"><g><path d="M 4.796875 0 C 4.484375 0 4.21875 -0.0820312 4 -0.25 C 3.78125 -0.425781 3.601562 -0.644531 3.46875 -0.90625 C 3.34375 -1.175781 3.25 -1.472656 3.1875 -1.796875 C 3.125 -2.128906 3.09375 -2.441406 3.09375 -2.734375 L 3.09375 -20.546875 C 3.09375 -20.835938 3.125 -21.144531 3.1875 -21.46875 C 3.25 -21.800781 3.34375 -22.097656 3.46875 -22.359375 C 3.601562 -22.628906 3.78125 -22.847656 4 -23.015625 C 4.21875 -23.191406 4.484375 -23.28125 4.796875 -23.28125 L 23.28125 -23.28125 L 23.28125 -22.375 L 8.734375 -22.375 C 8.242188 -22.375 7.882812 -22.140625 7.65625 -21.671875 C 7.425781 -21.210938 7.3125 -20.742188 7.3125 -20.265625 L 7.3125 -12.734375 L 20 -12.734375 L 20 -11.828125 L 7.3125 -11.828125 L 7.3125 -3.015625 C 7.3125 -2.535156 7.425781 -2.0625 7.65625 -1.59375 C 7.882812 -1.132812 8.242188 -0.90625 8.734375 -0.90625 L 23.71875 -0.90625 L 23.71875 0 Z M 4.796875 0 "/></g></g></g><g fill="#15202c" fill-opacity="1"><g transform="translate(543.375699, 494.305724)"><g><path d="M 21.3125 0 L 19.5625 -4.765625 C 19.175781 -5.859375 18.804688 -6.847656 18.453125 -7.734375 C 18.109375 -8.617188 17.695312 -9.367188 17.21875 -9.984375 C 16.75 -10.597656 16.164062 -11.066406 15.46875 -11.390625 C 14.78125 -11.722656 13.890625 -11.890625 12.796875 -11.890625 L 8.953125 -11.890625 L 9.390625 -12.796875 L 14.078125 -12.796875 C 15.066406 -12.796875 15.929688 -12.9375 16.671875 -13.21875 C 17.410156 -13.5 18.03125 -13.867188 18.53125 -14.328125 C 19.03125 -14.785156 19.40625 -15.3125 19.65625 -15.90625 C 19.914062 -16.507812 20.046875 -17.113281 20.046875 -17.71875 C 20.046875 -19.070312 19.578125 -20.1875 18.640625 -21.0625 C 17.703125 -21.9375 16.265625 -22.375 14.328125 -22.375 L 8.90625 -22.375 C 8.425781 -22.375 8.070312 -22.140625 7.84375 -21.671875 C 7.613281 -21.210938 7.5 -20.742188 7.5 -20.265625 L 7.5 0 L 3.28125 0 L 3.28125 -20.546875 C 3.28125 -20.835938 3.304688 -21.144531 3.359375 -21.46875 C 3.421875 -21.800781 3.523438 -22.097656 3.671875 -22.359375 C 3.816406 -22.628906 4 -22.847656 4.21875 -23.015625 C 4.4375 -23.191406 4.691406 -23.28125 4.984375 -23.28125 L 15.34375 -23.28125 C 18.738281 -23.28125 21.179688 -22.796875 22.671875 -21.828125 C 24.171875 -20.859375 24.921875 -19.5625 24.921875 -17.9375 C 24.921875 -16.675781 24.585938 -15.675781 23.921875 -14.9375 C 23.253906 -14.195312 22.425781 -13.625 21.4375 -13.21875 C 20.457031 -12.820312 19.394531 -12.5625 18.25 -12.4375 C 17.113281 -12.320312 16.070312 -12.265625 15.125 -12.265625 L 15.125 -12.1875 C 16.050781 -12.09375 16.929688 -11.941406 17.765625 -11.734375 C 18.609375 -11.523438 19.390625 -11.210938 20.109375 -10.796875 C 20.835938 -10.390625 21.5 -9.851562 22.09375 -9.1875 C 22.6875 -8.519531 23.179688 -7.675781 23.578125 -6.65625 L 26.15625 0 Z M 21.3125 0 "/></g></g></g><g fill="#15202c" fill-opacity="1"><g transform="translate(570.98434, 494.305724)"><g><path d="M 15.71875 -1.53125 C 15.445312 -1.039062 15.164062 -0.617188 14.875 -0.265625 C 14.582031 0.078125 14.28125 0.25 13.96875 0.25 C 13.769531 0.25 13.566406 0.171875 13.359375 0.015625 C 13.160156 -0.140625 12.960938 -0.425781 12.765625 -0.84375 L 1.5625 -23.28125 L 6.46875 -23.28125 L 15.390625 -5.5 C 15.554688 -5.175781 15.722656 -5.015625 15.890625 -5.015625 C 16.035156 -5.015625 16.175781 -5.09375 16.3125 -5.25 C 16.445312 -5.414062 16.5625 -5.59375 16.65625 -5.78125 L 25.421875 -23.28125 L 26.625 -23.28125 Z M 15.71875 -1.53125 "/></g></g></g><g fill="#15202c" fill-opacity="1"><g transform="translate(599.284113, 494.305724)"><g><path d="M 3.28125 0 L 3.28125 -23.28125 L 7.5 -23.28125 L 7.5 0 Z M 3.28125 0 "/></g></g></g><g fill="#15202c" fill-opacity="1"><g transform="translate(610.051126, 494.305724)"><g><path d="M 26.265625 -2.578125 C 24.734375 -1.347656 23.007812 -0.488281 21.09375 0 C 19.175781 0.488281 17.238281 0.734375 15.28125 0.734375 C 13.507812 0.734375 11.789062 0.476562 10.125 -0.03125 C 8.46875 -0.539062 7 -1.304688 5.71875 -2.328125 C 4.445312 -3.347656 3.429688 -4.632812 2.671875 -6.1875 C 1.910156 -7.738281 1.53125 -9.554688 1.53125 -11.640625 C 1.53125 -13.503906 1.910156 -15.203125 2.671875 -16.734375 C 3.429688 -18.265625 4.445312 -19.566406 5.71875 -20.640625 C 7 -21.722656 8.46875 -22.550781 10.125 -23.125 C 11.789062 -23.707031 13.507812 -24 15.28125 -24 C 16.125 -24 17 -23.945312 17.90625 -23.84375 C 18.820312 -23.738281 19.734375 -23.566406 20.640625 -23.328125 C 21.546875 -23.097656 22.429688 -22.8125 23.296875 -22.46875 C 24.160156 -22.132812 24.96875 -21.726562 25.71875 -21.25 L 25.390625 -20.1875 C 24.003906 -21.113281 22.40625 -21.828125 20.59375 -22.328125 C 18.789062 -22.835938 17.019531 -23.09375 15.28125 -23.09375 C 13.625 -23.09375 12.226562 -22.75 11.09375 -22.0625 C 9.957031 -21.375 9.039062 -20.484375 8.34375 -19.390625 C 7.65625 -18.296875 7.160156 -17.066406 6.859375 -15.703125 C 6.554688 -14.347656 6.40625 -12.992188 6.40625 -11.640625 C 6.40625 -10.285156 6.578125 -8.925781 6.921875 -7.5625 C 7.273438 -6.207031 7.851562 -4.984375 8.65625 -3.890625 C 9.457031 -2.796875 10.519531 -1.90625 11.84375 -1.21875 C 13.164062 -0.53125 14.796875 -0.1875 16.734375 -0.1875 C 17.316406 -0.1875 18 -0.257812 18.78125 -0.40625 C 19.570312 -0.550781 20.390625 -0.757812 21.234375 -1.03125 C 22.085938 -1.3125 22.925781 -1.664062 23.75 -2.09375 C 24.570312 -2.519531 25.3125 -3 25.96875 -3.53125 Z M 26.265625 -2.578125 "/></g></g></g><g fill="#15202c" fill-opacity="1"><g transform="translate(637.659813, 494.305724)"><g><path d="M 4.796875 0 C 4.484375 0 4.21875 -0.0820312 4 -0.25 C 3.78125 -0.425781 3.601562 -0.644531 3.46875 -0.90625 C 3.34375 -1.175781 3.25 -1.472656 3.1875 -1.796875 C 3.125 -2.128906 3.09375 -2.441406 3.09375 -2.734375 L 3.09375 -20.546875 C 3.09375 -20.835938 3.125 -21.144531 3.1875 -21.46875 C 3.25 -21.800781 3.34375 -22.097656 3.46875 -22.359375 C 3.601562 -22.628906 3.78125 -22.847656 4 -23.015625 C 4.21875 -23.191406 4.484375 -23.28125 4.796875 -23.28125 L 23.28125 -23.28125 L 23.28125 -22.375 L 8.734375 -22.375 C 8.242188 -22.375 7.882812 -22.140625 7.65625 -21.671875 C 7.425781 -21.210938 7.3125 -20.742188 7.3125 -20.265625 L 7.3125 -12.734375 L 20 -12.734375 L 20 -11.828125 L 7.3125 -11.828125 L 7.3125 -3.015625 C 7.3125 -2.535156 7.425781 -2.0625 7.65625 -1.59375 C 7.882812 -1.132812 8.242188 -0.90625 8.734375 -0.90625 L 23.71875 -0.90625 L 23.71875 0 Z M 4.796875 0 "/></g></g></g></svg>